{"spec": {"version": 1, "bpm": 174.0, "key": {"root": "E", "mode": "minor"}, "timesig": {"num": 4, "den": 4}, "bars": 48, "sections": [{"id": "s1", "name": "intro", "start_bar": 1, "length_bars": 4, "intensity": 0.3}, {"id": "s2", "name": "verse", "start_bar": 5, "length_bars": 8, "intensity": 0.4}, {"id": "s3", "name": "build", "start_bar": 13, "length_bars": 4, "intensity": 0.6}, {"id": "s4", "name": "drop", "start_bar": 17, "length_bars": 8, "intensity": 0.9}, {"id": "s5", "name": "verse", "start_bar": 25, "length_bars": 8, "intensity": 0.4}, {"id": "s6", "name": "build", "start_bar": 33, "length_bars": 4, "intensity": 0.7}, {"id": "s7", "name": "drop", "start_bar": 37, "length_bars": 8, "intensity": 0.95}, {"id": "s8", "name": "outro", "start_bar": 45, "length_bars": 4, "intensity": 0.2}], "tracks": [{"id": "t1", "role": "drums", "name": "Amen Break Drums", "clips": [{"section": "s1", "bars": 4, "notes": [{"pitch": 36, "start": 0.0, "length": 0.25, "velocity": 108, "probability": 1.0}, {"pitch": 36, "start": 2.5, "length": 0.25, "velocity": 100, "probability": 1.0}, {"pitch": 36, "start": 3.0, "length": 0.25, "velocity": 96, "probability": 1.0}, {"pitch": 38, "start": 1.0, "length": 0.25, "velocity": 105, "probability": 1.0}, {"pitch": 38, "start": 3.0, "length": 0.25, "velocity": 102, "probability": 1.0}, {"pitch": 38, "start": 3.75, "length": 0.25, "velocity": 60, "probability": 1.0}, {"pitch": 42, "start": 0.5, "length": 0.25, "velocity": 70, "probability": 1.0}, {"pitch": 42, "start": 1.5, "length": 0.25, "velocity": 70, "probability": 1.0}, {"pitch": 42, "start": 2.5, "length": 0.25, "velocity": 70, "probability": 1.0}, {"pitch": 42, "start": 3.5, "length": 0.25, "velocity": 70, "probability": 1.0}, {"pitch": 36, "start": 4.0, "length": 0.25, "velocity": 108, "probability": 1.0}, {"pitch": 36, "start": 6.5, "length": 0.25, "velocity": 100, "probability": 1.0}, {"pitch": 36, "start": 7.0, "length": 0.25, "velocity": 96, "probability": 1.0}, {"pitch": 38, "start": 5.0, "length": 0.25, "velocity": 105, "probability": 1.0}, {"pitch": 38, "start": 7.0, "length": 0.25, "velocity": 102, "probability": 1.0}, {"pitch": 38, "start": 7.75, "length": 0.25, "velocity": 60, "probability": 1.0}, {"pitch": 42, "start": 4.5, "length": 0.25, "velocity": 70, "probability": 1.0}, {"pitch": 42, "start": 5.5, "length": 0.25, "velocity": 70, "probability": 1.0}, {"pitch": 42, "start": 6.5, "length": 0.25, "velocity": 70, "probability": 1.0}, {"pitch": 42, "start": 7.5, "length": 0.25, "velocity": 70, "probability": 1.0}, {"pitch": 36, "start": 8.0, "length": 0.25, "velocity": 108, "probability": 1.0}, {"pitch": 36, "start": 10.5, "length": 0.25, "velocity": 100, "probability": 1.0}, {"pitch": 36, "start": 11.0, "length": 0.25, "velocity": 96, "probability": 1.0}, {"pitch": 38, "start": 9.0, "length": 0.25, "velocity": 105, "probability": 1.0}, {"pitch": 38, "start": 11.0, "length": 0.25, "velocity": 102, "probability": 1.0}, {"pitch": 38, "start": 11.75, "length": 0.25, "velocity": 60, "probability": 1.0}, {"pitch": 42, "start": 8.5, "length": 0.25, "velocity": 70, "probability": 1.0}, {"pitch": 42, "start": 9.5, "length": 0.25, "velocity": 70, "probability": 1.0}, {"pitch": 42, "start": 10.5, "length": 0.25, "velocity": 70, "probability": 1.0}, {"pitch": 42, "start": 11.5, "length": 0.25, "velocity": 70, "probability": 1.0}, {"pitch": 36, "start": 12.0, "length": 0.25, "velocity": 108, "probability": 1.0}, {"pitch": 36, "start": 14.5, "length": 0.25, "velocity": 100, "probability": 1.0}, {"pitch": 36, "start": 15.0, "length": 0.25, "velocity": 96, "probability": 1.0}, {"pitch": 38, "start": 13.0, "length": 0.25, "velocity": 105, "probability": 1.0}, {"pitch": 38, "start": 15.0, "length": 0.25, "velocity": 102, "probability": 1.0}, {"pitch": 38, "start": 15.75, "length": 0.25, "velocity": 60, "probability": 1.0}, {"pitch": 42, "start": 12.5, "length": 0.25, "velocity": 70, "probability": 1.0}, {"pitch": 42, "start": 13.5, "length": 0.25, "velocity": 70, "probability": 1.0}, {"pitch": 42, "start": 14.5, "length": 0.25, "velocity": 70, "probability": 1.0}, {"pitch": 42, "start": 15.5, "length": 0.25, "velocity": 70, "probability": 1.0}], "groove": null, "pattern": "breakbeat"}, {"section": "s2", "bars": 8, "notes": [{"pitch": 36, "start": 0.0, "length": 0.25, "velocity": 108, "probability": 1.0}, {"pitch": 36, "start": 2.5, "length": 0.25, "velocity": 100, "probability": 1.0}, {"pitch": 36, "start": 3.0, "length": 0.25, "velocity": 96, "probability": 1.0}, {"pitch": 38, "start": 1.0, "length": 0.25, "velocity": 105, "probability": 1.0}, {"pitch": 38, "start": 3.0, "length": 0.25, "velocity": 102, "probability": 1.0}, {"pitch": 38, "start": 3.75, "length": 0.25, "velocity": 60, "probability": 1.0}, {"pitch": 42, "start": 0.5, "length": 0.25, "velocity": 70, "probability": 1.0}, {"pitch": 42, "start": 1.5, "length": 0.25, "velocity": 70, "probability": 1.0}, {"pitch": 42, "start": 2.5, "length": 0.25, "velocity": 70, "probability": 1.0}, {"pitch": 42, "start": 3.5, "length": 0.25, "velocity": 70, "probability": 1.0}, {"pitch": 36, "start": 4.0, "length": 0.25, "velocity": 108, "probability": 1.0}, {"pitch": 36, "start": 6.5, "length": 0.25, "velocity": 100, "probability": 1.0}, {"pitch": 36, "start": 7.0, "length": 0.25, "velocity": 96, "probability": 1.0}, {"pitch": 38, "start": 5.0, "length": 0.25, "velocity": 105, "probability": 1.0}, {"pitch": 38, "start": 7.0, "length": 0.25, "velocity": 102, "probability": 1.0}, {"pitch": 38, "start": 7.75, "length": 0.25, "velocity": 60, "probability": 1.0}, {"pitch": 42, "start": 4.5, "length": 0.25, "velocity": 70, "probability": 1.0}, {"pitch": 42, "start": 5.5, "length": 0.25, "velocity": 70, "probability": 1.0}, {"pitch": 42, "start": 6.5, "length": 0.25, "velocity": 70, "probability": 1.0}, {"pitch": 42, "start": 7.5, "length": 0.25, "velocity": 70, "probability": 1.0}, {"pitch": 36, "start": 8.0, "length": 0.25, "velocity": 108, "probability": 1.0}, {"pitch": 36, "start": 10.5, "length": 0.25, "velocity": 100, "probability": 1.0}, {"pitch": 36, "start": 11.0, "length": 0.25, "velocity": 96, "probability": 1.0}, {"pitch": 38, "start": 9.0, "length": 0.25, "velocity": 105, "probability": 1.0}, {"pitch": 38, "start": 11.0, "length": 0.25, "velocity": 102, "probability": 1.0}, {"pitch": 38, "start": 11.75, "length": 0.25, "velocity": 60, "probability": 1.0}, {"pitch": 42, "start": 8.5, "length": 0.25, "velocity": 70, "probability": 1.0}, {"pitch": 42, "start": 9.5, "length": 0.25, "velocity": 70, "probability": 1.0}, {"pitch": 42, "start": 10.5, "length": 0.25, "velocity": 70, "probability": 1.0}, {"pitch": 42, "start": 11.5, "length": 0.25, "velocity": 70, "probability": 1.0}, {"pitch": 36, "start": 12.0, "length": 0.25, "velocity": 108, "probability": 1.0}, {"pitch": 36, "start": 14.5, "length": 0.25, "velocity": 100, "probability": 1.0}, {"pitch": 36, "start": 15.0, "length": 0.25, "velocity": 96, "probability": 1.0}, {"pitch": 38, "start": 13.0, "length": 0.25, "velocity": 105, "probability": 1.0}, {"pitch": 38, "start": 15.0, "length": 0.25, "velocity": 102, "probability": 1.0}, {"pitch": 38, "start": 15.75, "length": 0.25, "velocity": 60, "probability": 1.0}, {"pitch": 42, "start": 12.5, "length": 0.25, "velocity": 70, "probability": 1.0}, {"pitch": 42, "start": 13.5, "length": 0.25, "velocity": 70, "probability": 1.0}, {"pitch": 42, "start": 14.5, "length": 0.25, "velocity": 70, "probability": 1.0}, {"pitch": 42, "start": 15.5, "length": 0.25, "velocity": 70, "probability": 1.0}, {"pitch": 36, "start": 16.0, "length": 0.25, "velocity": 108, "probability": 1.0}, {"pitch": 36, "start": 18.5, "length": 0.25, "velocity": 100, "probability": 1.0}, {"pitch": 36, "start": 19.0, "length": 0.25, "velocity": 96, "probability": 1.0}, {"pitch": 38, "start": 17.0, "length": 0.25, "velocity": 105, "probability": 1.0}, {"pitch": 38, "start": 19.0, "length": 0.25, "velocity": 102, "probability": 1.0}, {"pitch": 38, "start": 19.75, "length": 0.25, "velocity": 60, "probability": 1.0}, {"pitch": 42, "start": 16.5, "length": 0.25, "velocity": 70, "probability": 1.0}, {"pitch": 42, "start": 17.5, "length": 0.25, "velocity": 70, "probability": 1.0}, {"pitch": 42, "start": 18.5, "length": 0.25, "velocity": 70, "probability": 1.0}, {"pitch": 42, "start": 19.5, "length": 0.25, "velocity": 70, "probability": 1.0}, {"pitch": 36, "start": 20.0, "length": 0.25, "velocity": 108, "probability": 1.0}, {"pitch": 36, "start": 22.5, "length": 0.25, "velocity": 100, "probability": 1.0}, {"pitch": 36, "start": 23.0, "length": 0.25, "velocity": 96, "probability": 1.0}, {"pitch": 38, "start": 21.0, "length": 0.25, "velocity": 105, "probability": 1.0}, {"pitch": 38, "start": 23.0, "length": 0.25, "velocity": 102, "probability": 1.0}, {"pitch": 38, "start": 23.75, "length": 0.25, "velocity": 60, "probability": 1.0}, {"pitch": 42, "start": 20.5, "length": 0.25, "velocity": 70, "probability": 1.0}, {"pitch": 42, "start": 21.5, "length": 0.25, "velocity": 70, "probability": 1.0}, {"pitch": 42, "start": 22.5, "length": 0.25, "velocity": 70, "probability": 1.0}, {"pitch": 42, "start": 23.5, "length": 0.25, "velocity": 70, "probability": 1.0}, {"pitch": 36, "start": 24.0, "length": 0.25, "velocity": 108, "probability": 1.0}, {"pitch": 36, "start": 26.5, "length": 0.25, "velocity": 100, "probability": 1.0}, {"pitch": 36, "start": 27.0, "length": 0.25, "velocity": 96, "probability": 1.0}, {"pitch": 38, "start": 25.0, "length": 0.25, "velocity": 105, "probability": 1.0}, {"pitch": 38, "start": 27.0, "length": 0.25, "velocity": 102, "probability": 1.0}, {"pitch": 38, "start": 27.75, "length": 0.25, "velocity": 60, "probability": 1.0}, {"pitch": 42, "start": 24.5, "length": 0.25, "velocity": 70, "probability": 1.0}, {"pitch": 42, "start": 25.5, "length": 0.25, "velocity": 70, "probability": 1.0}, {"pitch": 42, "start": 26.5, "length": 0.25, "velocity": 70, "probability": 1.0}, {"pitch": 42, "start": 27.5, "length": 0.25, "velocity": 70, "probability": 1.0}, {"pitch": 36, "start": 28.0, "length": 0.25, "velocity": 108, "probability": 1.0}, {"pitch": 36, "start": 30.5, "length": 0.25, "velocity": 100, "probability": 1.0}, {"pitch": 36, "start": 31.0, "length": 0.25, "velocity": 96, "probability": 1.0}, {"pitch": 38, "start": 29.0, "length": 0.25, "velocity": 105, "probability": 1.0}, {"pitch": 38, "start": 31.0, "length": 0.25, "velocity": 102, "probability": 1.0}, {"pitch": 38, "start": 31.75, "length": 0.25, "velocity": 60, "probability": 1.0}, {"pitch": 42, "start": 28.5, "length": 0.25, "velocity": 70, "probability": 1.0}, {"pitch": 42, "start": 29.5, "length": 0.25, "velocity": 70, "probability": 1.0}, {"pitch": 42, "start": 30.5, "length": 0.25, "velocity": 70, "probability": 1.0}, {"pitch": 42, "start": 31.5, "length": 0.25, "velocity": 70, "probability": 1.0}], "groove": null, "pattern": "breakbeat"}, {"section": "s3", "bars": 4, "notes": [{"pitch": 36, "start": 0.0, "length": 0.25, "velocity": 115, "probability": 1.0}, {"pitch": 36, "start": 1.0, "length": 0.25, "velocity": 115, "probability": 1.0}, {"pitch": 36, "start": 2.0, "length": 0.25, "velocity": 115, "probability": 1.0}, {"pitch": 36, "start": 3.0, "length": 0.25, "velocity": 115, "probability": 1.0}, {"pitch": 46, "start": 0.5, "length": 0.4, "velocity": 95, "probability": 1.0}, {"pitch": 46, "start": 1.5, "length": 0.4, "velocity": 95, "probability": 1.0}, {"pitch": 46, "start": 2.5, "length": 0.4, "velocity": 95, "probability": 1.0}, {"pitch": 46, "start": 3.5, "length": 0.4, "velocity": 95, "probability": 1.0}, {"pitch": 36, "start": 4.0, "length": 0.25, "velocity": 115, "probability": 1.0}, {"pitch": 36, "start": 5.0, "length": 0.25, "velocity": 115, "probability": 1.0}, {"pitch": 36, "start": 6.0, "length": 0.25, "velocity": 115, "probability": 1.0}, {"pitch": 36, "start": 7.0, "length": 0.25, "velocity": 115, "probability": 1.0}, {"pitch": 46, "start": 4.5, "length": 0.4, "velocity": 95, "probability": 1.0}, {"pitch": 46, "start": 5.5, "length": 0.4, "velocity": 95, "probability": 1.0}, {"pitch": 46, "start": 6.5, "length": 0.4, "velocity": 95, "probability": 1.0}, {"pitch": 46, "start": 7.5, "length": 0.4, "velocity": 95, "probability": 1.0}, {"pitch": 36, "start": 8.0, "length": 0.25, "velocity": 115, "probability": 1.0}, {"pitch": 36, "start": 9.0, "length": 0.25, "velocity": 115, "probability": 1.0}, {"pitch": 36, "start": 10.0, "length": 0.25, "velocity": 115, "probability": 1.0}, {"pitch": 36, "start": 11.0, "length": 0.25, "velocity": 115, "probability": 1.0}, {"pitch": 46, "start": 8.5, "length": 0.4, "velocity": 95, "probability": 1.0}, {"pitch": 46, "start": 9.5, "length": 0.4, "velocity": 95, "probability": 1.0}, {"pitch": 46, "start": 10.5, "length": 0.4, "velocity": 95, "probability": 1.0}, {"pitch": 46, "start": 11.5, "length": 0.4, "velocity": 95, "probability": 1.0}, {"pitch": 36, "start": 12.0, "length": 0.25, "velocity": 115, "probability": 1.0}, {"pitch": 36, "start": 13.0, "length": 0.25, "velocity": 115, "probability": 1.0}, {"pitch": 36, "start": 14.0, "length": 0.25, "velocity": 115, "probability": 1.0}, {"pitch": 36, "start": 15.0, "length": 0.25, "velocity": 115, "probability": 1.0}, {"pitch": 46, "start": 12.5, "length": 0.4, "velocity": 95, "probability": 1.0}, {"pitch": 46, "start": 13.5, "length": 0.4, "velocity": 95, "probability": 1.0}, {"pitch": 46, "start": 14.5, "length": 0.4, "velocity": 95, "probability": 1.0}, {"pitch": 46, "start": 15.5, "length": 0.4, "velocity": 95, "probability": 1.0}], "groove": null, "pattern": "techno_driving"}, {"section": "s4", "bars": 8, "notes": [{"pitch": 36, "start": 0.0, "length": 0.25, "velocity": 108, "probability": 1.0}, {"pitch": 36, "start": 2.5, "length": 0.25, "velocity": 100, "probability": 1.0}, {"pitch": 36, "start": 3.0, "length": 0.25, "velocity": 96, "probability": 1.0}, {"pitch": 38, "start": 1.0, "length": 0.25, "velocity": 105, "probability": 1.0}, {"pitch": 38, "start": 3.0, "length": 0.25, "velocity": 102, "probability": 1.0}, {"pitch": 38, "start": 3.75, "length": 0.25, "velocity": 60, "probability": 1.0}, {"pitch": 42, "start": 0.5, "length": 0.25, "velocity": 70, "probability": 1.0}, {"pitch": 42, "start": 1.5, "length": 0.25, "velocity": 70, "probability": 1.0}, {"pitch": 42, "start": 2.5, "length": 0.25, "velocity": 70, "probability": 1.0}, {"pitch": 42, "start": 3.5, "length": 0.25, "velocity": 70, "probability": 1.0}, {"pitch": 36, "start": 4.0, "length": 0.25, "velocity": 108, "probability": 1.0}, {"pitch": 36, "start": 6.5, "length": 0.25, "velocity": 100, "probability": 1.0}, {"pitch": 36, "start": 7.0, "length": 0.25, "velocity": 96, "probability": 1.0}, {"pitch": 38, "start": 5.0, "length": 0.25, "velocity": 105, "probability": 1.0}, {"pitch": 38, "start": 7.0, "length": 0.25, "velocity": 102, "probability": 1.0}, {"pitch": 38, "start": 7.75, "length": 0.25, "velocity": 60, "probability": 1.0}, {"pitch": 42, "start": 4.5, "length": 0.25, "velocity": 70, "probability": 1.0}, {"pitch": 42, "start": 5.5, "length": 0.25, "velocity": 70, "probability": 1.0}, {"pitch": 42, "start": 6.5, "length": 0.25, "velocity": 70, "probability": 1.0}, {"pitch": 42, "start": 7.5, "length": 0.25, "velocity": 70, "probability": 1.0}, {"pitch": 36, "start": 8.0, "length": 0.25, "velocity": 108, "probability": 1.0}, {"pitch": 36, "start": 10.5, "length": 0.25, "velocity": 100, "probability": 1.0}, {"pitch": 36, "start": 11.0, "length": 0.25, "velocity": 96, "probability": 1.0}, {"pitch": 38, "start": 9.0, "length": 0.25, "velocity": 105, "probability": 1.0}, {"pitch": 38, "start": 11.0, "length": 0.25, "velocity": 102, "probability": 1.0}, {"pitch": 38, "start": 11.75, "length": 0.25, "velocity": 60, "probability": 1.0}, {"pitch": 42, "start": 8.5, "length": 0.25, "velocity": 70, "probability": 1.0}, {"pitch": 42, "start": 9.5, "length": 0.25, "velocity": 70, "probability": 1.0}, {"pitch": 42, "start": 10.5, "length": 0.25, "velocity": 70, "probability": 1.0}, {"pitch": 42, "start": 11.5, "length": 0.25, "velocity": 70, "probability": 1.0}, {"pitch": 36, "start": 12.0, "length": 0.25, "velocity": 108, "probability": 1.0}, {"pitch": 36, "start": 14.5, "length": 0.25, "velocity": 100, "probability": 1.0}, {"pitch": 36, "start": 15.0, "length": 0.25, "velocity": 96, "probability": 1.0}, {"pitch": 38, "start": 13.0, "length": 0.25, "velocity": 105, "probability": 1.0}, {"pitch": 38, "start": 15.0, "length": 0.25, "velocity": 102, "probability": 1.0}, {"pitch": 38, "start": 15.75, "length": 0.25, "velocity": 60, "probability": 1.0}, {"pitch": 42, "start": 12.5, "length": 0.25, "velocity": 70, "probability": 1.0}, {"pitch": 42, "start": 13.5, "length": 0.25, "velocity": 70, "probability": 1.0}, {"pitch": 42, "start": 14.5, "length": 0.25, "velocity": 70, "probability": 1.0}, {"pitch": 42, "start": 15.5, "length": 0.25, "velocity": 70, "probability": 1.0}, {"pitch": 36, "start": 16.0, "length": 0.25, "velocity": 108, "probability": 1.0}, {"pitch": 36, "start": 18.5, "length": 0.25, "velocity": 100, "probability": 1.0}, {"pitch": 36, "start": 19.0, "length": 0.25, "velocity": 96, "probability": 1.0}, {"pitch": 38, "start": 17.0, "length": 0.25, "velocity": 105, "probability": 1.0}, {"pitch": 38, "start": 19.0, "length": 0.25, "velocity": 102, "probability": 1.0}, {"pitch": 38, "start": 19.75, "length": 0.25, "velocity": 60, "probability": 1.0}, {"pitch": 42, "start": 16.5, "length": 0.25, "velocity": 70, "probability": 1.0}, {"pitch": 42, "start": 17.5, "length": 0.25, "velocity": 70, "probability": 1.0}, {"pitch": 42, "start": 18.5, "length": 0.25, "velocity": 70, "probability": 1.0}, {"pitch": 42, "start": 19.5, "length": 0.25, "velocity": 70, "probability": 1.0}, {"pitch": 36, "start": 20.0, "length": 0.25, "velocity": 108, "probability": 1.0}, {"pitch": 36, "start": 22.5, "length": 0.25, "velocity": 100, "probability": 1.0}, {"pitch": 36, "start": 23.0, "length": 0.25, "velocity": 96, "probability": 1.0}, {"pitch": 38, "start": 21.0, "length": 0.25, "velocity": 105, "probability": 1.0}, {"pitch": 38, "start": 23.0, "length": 0.25, "velocity": 102, "probability": 1.0}, {"pitch": 38, "start": 23.75, "length": 0.25, "velocity": 60, "probability": 1.0}, {"pitch": 42, "start": 20.5, "length": 0.25, "velocity": 70, "probability": 1.0}, {"pitch": 42, "start": 21.5, "length": 0.25, "velocity": 70, "probability": 1.0}, {"pitch": 42, "start": 22.5, "length": 0.25, "velocity": 70, "probability": 1.0}, {"pitch": 42, "start": 23.5, "length": 0.25, "velocity": 70, "probability": 1.0}, {"pitch": 36, "start": 24.0, "length": 0.25, "velocity": 108, "probability": 1.0}, {"pitch": 36, "start": 26.5, "length": 0.25, "velocity": 100, "probability": 1.0}, {"pitch": 36, "start": 27.0, "length": 0.25, "velocity": 96, "probability": 1.0}, {"pitch": 38, "start": 25.0, "length": 0.25, "velocity": 105, "probability": 1.0}, {"pitch": 38, "start": 27.0, "length": 0.25, "velocity": 102, "probability": 1.0}, {"pitch": 38, "start": 27.75, "length": 0.25, "velocity": 60, "probability": 1.0}, {"pitch": 42, "start": 24.5, "length": 0.25, "velocity": 70, "probability": 1.0}, {"pitch": 42, "start": 25.5, "length": 0.25, "velocity": 70, "probability": 1.0}, {"pitch": 42, "start": 26.5, "length": 0.25, "velocity": 70, "probability": 1.0}, {"pitch": 42, "start": 27.5, "length": 0.25, "velocity": 70, "probability": 1.0}, {"pitch": 36, "start": 28.0, "length": 0.25, "velocity": 108, "probability": 1.0}, {"pitch": 36, "start": 30.5, "length": 0.25, "velocity": 100, "probability": 1.0}, {"pitch": 36, "start": 31.0, "length": 0.25, "velocity": 96, "probability": 1.0}, {"pitch": 38, "start": 29.0, "length": 0.25, "velocity": 105, "probability": 1.0}, {"pitch": 38, "start": 31.0, "length": 0.25, "velocity": 102, "probability": 1.0}, {"pitch": 38, "start": 31.75, "length": 0.25, "velocity": 60, "probability": 1.0}, {"pitch": 42, "start": 28.5, "length": 0.25, "velocity": 70, "probability": 1.0}, {"pitch": 42, "start": 29.5, "length": 0.25, "velocity": 70, "probability": 1.0}, {"pitch": 42, "start": 30.5, "length": 0.25, "velocity": 70, "probability": 1.0}, {"pitch": 42, "start": 31.5, "length": 0.25, "velocity": 70, "probability": 1.0}], "groove": null, "pattern": "breakbeat"}, {"section": "s5", "bars": 8, "notes": [{"pitch": 36, "start": 0.0, "length": 0.25, "velocity": 108, "probability": 1.0}, {"pitch": 36, "start": 2.5, "length": 0.25, "velocity": 100, "probability": 1.0}, {"pitch": 36, "start": 3.0, "length": 0.25, "velocity": 96, "probability": 1.0}, {"pitch": 38, "start": 1.0, "length": 0.25, "velocity": 105, "probability": 1.0}, {"pitch": 38, "start": 3.0, "length": 0.25, "velocity": 102, "probability": 1.0}, {"pitch": 38, "start": 3.75, "length": 0.25, "velocity": 60, "probability": 1.0}, {"pitch": 42, "start": 0.5, "length": 0.25, "velocity": 70, "probability": 1.0}, {"pitch": 42, "start": 1.5, "length": 0.25, "velocity": 70, "probability": 1.0}, {"pitch": 42, "start": 2.5, "length": 0.25, "velocity": 70, "probability": 1.0}, {"pitch": 42, "start": 3.5, "length": 0.25, "velocity": 70, "probability": 1.0}, {"pitch": 36, "start": 4.0, "length": 0.25, "velocity": 108, "probability": 1.0}, {"pitch": 36, "start": 6.5, "length": 0.25, "velocity": 100, "probability": 1.0}, {"pitch": 36, "start": 7.0, "length": 0.25, "velocity": 96, "probability": 1.0}, {"pitch": 38, "start": 5.0, "length": 0.25, "velocity": 105, "probability": 1.0}, {"pitch": 38, "start": 7.0, "length": 0.25, "velocity": 102, "probability": 1.0}, {"pitch": 38, "start": 7.75, "length": 0.25, "velocity": 60, "probability": 1.0}, {"pitch": 42, "start": 4.5, "length": 0.25, "velocity": 70, "probability": 1.0}, {"pitch": 42, "start": 5.5, "length": 0.25, "velocity": 70, "probability": 1.0}, {"pitch": 42, "start": 6.5, "length": 0.25, "velocity": 70, "probability": 1.0}, {"pitch": 42, "start": 7.5, "length": 0.25, "velocity": 70, "probability": 1.0}, {"pitch": 36, "start": 8.0, "length": 0.25, "velocity": 108, "probability": 1.0}, {"pitch": 36, "start": 10.5, "length": 0.25, "velocity": 100, "probability": 1.0}, {"pitch": 36, "start": 11.0, "length": 0.25, "velocity": 96, "probability": 1.0}, {"pitch": 38, "start": 9.0, "length": 0.25, "velocity": 105, "probability": 1.0}, {"pitch": 38, "start": 11.0, "length": 0.25, "velocity": 102, "probability": 1.0}, {"pitch": 38, "start": 11.75, "length": 0.25, "velocity": 60, "probability": 1.0}, {"pitch": 42, "start": 8.5, "length": 0.25, "velocity": 70, "probability": 1.0}, {"pitch": 42, "start": 9.5, "length": 0.25, "velocity": 70, "probability": 1.0}, {"pitch": 42, "start": 10.5, "length": 0.25, "velocity": 70, "probability": 1.0}, {"pitch": 42, "start": 11.5, "length": 0.25, "velocity": 70, "probability": 1.0}, {"pitch": 36, "start": 12.0, "length": 0.25, "velocity": 108, "probability": 1.0}, {"pitch": 36, "start": 14.5, "length": 0.25, "velocity": 100, "probability": 1.0}, {"pitch": 36, "start": 15.0, "length": 0.25, "velocity": 96, "probability": 1.0}, {"pitch": 38, "start": 13.0, "length": 0.25, "velocity": 105, "probability": 1.0}, {"pitch": 38, "start": 15.0, "length": 0.25, "velocity": 102, "probability": 1.0}, {"pitch": 38, "start": 15.75, "length": 0.25, "velocity": 60, "probability": 1.0}, {"pitch": 42, "start": 12.5, "length": 0.25, "velocity": 70, "probability": 1.0}, {"pitch": 42, "start": 13.5, "length": 0.25, "velocity": 70, "probability": 1.0}, {"pitch": 42, "start": 14.5, "length": 0.25, "velocity": 70, "probability": 1.0}, {"pitch": 42, "start": 15.5, "length": 0.25, "velocity": 70, "probability": 1.0}, {"pitch": 36, "start": 16.0, "length": 0.25, "velocity": 108, "probability": 1.0}, {"pitch": 36, "start": 18.5, "length": 0.25, "velocity": 100, "probability": 1.0}, {"pitch": 36, "start": 19.0, "length": 0.25, "velocity": 96, "probability": 1.0}, {"pitch": 38, "start": 17.0, "length": 0.25, "velocity": 105, "probability": 1.0}, {"pitch": 38, "start": 19.0, "length": 0.25, "velocity": 102, "probability": 1.0}, {"pitch": 38, "start": 19.75, "length": 0.25, "velocity": 60, "probability": 1.0}, {"pitch": 42, "start": 16.5, "length": 0.25, "velocity": 70, "probability": 1.0}, {"pitch": 42, "start": 17.5, "length": 0.25, "velocity": 70, "probability": 1.0}, {"pitch": 42, "start": 18.5, "length": 0.25, "velocity": 70, "probability": 1.0}, {"pitch": 42, "start": 19.5, "length": 0.25, "velocity": 70, "probability": 1.0}, {"pitch": 36, "start": 20.0, "length": 0.25, "velocity": 108, "probability": 1.0}, {"pitch": 36, "start": 22.5, "length": 0.25, "velocity": 100, "probability": 1.0}, {"pitch": 36, "start": 23.0, "length": 0.25, "velocity": 96, "probability": 1.0}, {"pitch": 38, "start": 21.0, "length": 0.25, "velocity": 105, "probability": 1.0}, {"pitch": 38, "start": 23.0, "length": 0.25, "velocity": 102, "probability": 1.0}, {"pitch": 38, "start": 23.75, "length": 0.25, "velocity": 60, "probability": 1.0}, {"pitch": 42, "start": 20.5, "length": 0.25, "velocity": 70, "probability": 1.0}, {"pitch": 42, "start": 21.5, "length": 0.25, "velocity": 70, "probability": 1.0}, {"pitch": 42, "start": 22.5, "length": 0.25, "velocity": 70, "probability": 1.0}, {"pitch": 42, "start": 23.5, "length": 0.25, "velocity": 70, "probability": 1.0}, {"pitch": 36, "start": 24.0, "length": 0.25, "velocity": 108, "probability": 1.0}, {"pitch": 36, "start": 26.5, "length": 0.25, "velocity": 100, "probability": 1.0}, {"pitch": 36, "start": 27.0, "length": 0.25, "velocity": 96, "probability": 1.0}, {"pitch": 38, "start": 25.0, "length": 0.25, "velocity": 105, "probability": 1.0}, {"pitch": 38, "start": 27.0, "length": 0.25, "velocity": 102, "probability": 1.0}, {"pitch": 38, "start": 27.75, "length": 0.25, "velocity": 60, "probability": 1.0}, {"pitch": 42, "start": 24.5, "length": 0.25, "velocity": 70, "probability": 1.0}, {"pitch": 42, "start": 25.5, "length": 0.25, "velocity": 70, "probability": 1.0}, {"pitch": 42, "start": 26.5, "length": 0.25, "velocity": 70, "probability": 1.0}, {"pitch": 42, "start": 27.5, "length": 0.25, "velocity": 70, "probability": 1.0}, {"pitch": 36, "start": 28.0, "length": 0.25, "velocity": 108, "probability": 1.0}, {"pitch": 36, "start": 30.5, "length": 0.25, "velocity": 100, "probability": 1.0}, {"pitch": 36, "start": 31.0, "length": 0.25, "velocity": 96, "probability": 1.0}, {"pitch": 38, "start": 29.0, "length": 0.25, "velocity": 105, "probability": 1.0}, {"pitch": 38, "start": 31.0, "length": 0.25, "velocity": 102, "probability": 1.0}, {"pitch": 38, "start": 31.75, "length": 0.25, "velocity": 60, "probability": 1.0}, {"pitch": 42, "start": 28.5, "length": 0.25, "velocity": 70, "probability": 1.0}, {"pitch": 42, "start": 29.5, "length": 0.25, "velocity": 70, "probability": 1.0}, {"pitch": 42, "start": 30.5, "length": 0.25, "velocity": 70, "probability": 1.0}, {"pitch": 42, "start": 31.5, "length": 0.25, "velocity": 70, "probability": 1.0}], "groove": null, "pattern": "breakbeat"}, {"section": "s6", "bars": 4, "notes": [{"pitch": 36, "start": 0.0, "length": 0.25, "velocity": 115, "probability": 1.0}, {"pitch": 36, "start": 1.0, "length": 0.25, "velocity": 115, "probability": 1.0}, {"pitch": 36, "start": 2.0, "length": 0.25, "velocity": 115, "probability": 1.0}, {"pitch": 36, "start": 3.0, "length": 0.25, "velocity": 115, "probability": 1.0}, {"pitch": 46, "start": 0.5, "length": 0.4, "velocity": 95, "probability": 1.0}, {"pitch": 46, "start": 1.5, "length": 0.4, "velocity": 95, "probability": 1.0}, {"pitch": 46, "start": 2.5, "length": 0.4, "velocity": 95, "probability": 1.0}, {"pitch": 46, "start": 3.5, "length": 0.4, "velocity": 95, "probability": 1.0}, {"pitch": 36, "start": 4.0, "length": 0.25, "velocity": 115, "probability": 1.0}, {"pitch": 36, "start": 5.0, "length": 0.25, "velocity": 115, "probability": 1.0}, {"pitch": 36, "start": 6.0, "length": 0.25, "velocity": 115, "probability": 1.0}, {"pitch": 36, "start": 7.0, "length": 0.25, "velocity": 115, "probability": 1.0}, {"pitch": 46, "start": 4.5, "length": 0.4, "velocity": 95, "probability": 1.0}, {"pitch": 46, "start": 5.5, "length": 0.4, "velocity": 95, "probability": 1.0}, {"pitch": 46, "start": 6.5, "length": 0.4, "velocity": 95, "probability": 1.0}, {"pitch": 46, "start": 7.5, "length": 0.4, "velocity": 95, "probability": 1.0}, {"pitch": 36, "start": 8.0, "length": 0.25, "velocity": 115, "probability": 1.0}, {"pitch": 36, "start": 9.0, "length": 0.25, "velocity": 115, "probability": 1.0}, {"pitch": 36, "start": 10.0, "length": 0.25, "velocity": 115, "probability": 1.0}, {"pitch": 36, "start": 11.0, "length": 0.25, "velocity": 115, "probability": 1.0}, {"pitch": 46, "start": 8.5, "length": 0.4, "velocity": 95, "probability": 1.0}, {"pitch": 46, "start": 9.5, "length": 0.4, "velocity": 95, "probability": 1.0}, {"pitch": 46, "start": 10.5, "length": 0.4, "velocity": 95, "probability": 1.0}, {"pitch": 46, "start": 11.5, "length": 0.4, "velocity": 95, "probability": 1.0}, {"pitch": 36, "start": 12.0, "length": 0.25, "velocity": 115, "probability": 1.0}, {"pitch": 36, "start": 13.0, "length": 0.25, "velocity": 115, "probability": 1.0}, {"pitch": 36, "start": 14.0, "length": 0.25, "velocity": 115, "probability": 1.0}, {"pitch": 36, "start": 15.0, "length": 0.25, "velocity": 115, "probability": 1.0}, {"pitch": 46, "start": 12.5, "length": 0.4, "velocity": 95, "probability": 1.0}, {"pitch": 46, "start": 13.5, "length": 0.4, "velocity": 95, "probability": 1.0}, {"pitch": 46, "start": 14.5, "length": 0.4, "velocity": 95, "probability": 1.0}, {"pitch": 46, "start": 15.5, "length": 0.4, "velocity": 95, "probability": 1.0}], "groove": null, "pattern": "techno_driving"}, {"section": "s7", "bars": 8, "notes": [{"pitch": 36, "start": 0.0, "length": 0.25, "velocity": 108, "probability": 1.0}, {"pitch": 36, "start": 2.5, "length": 0.25, "velocity": 100, "probability": 1.0}, {"pitch": 36, "start": 3.0, "length": 0.25, "velocity": 96, "probability": 1.0}, {"pitch": 38, "start": 1.0, "length": 0.25, "velocity": 105, "probability": 1.0}, {"pitch": 38, "start": 3.0, "length": 0.25, "velocity": 102, "probability": 1.0}, {"pitch": 38, "start": 3.75, "length": 0.25, "velocity": 60, "probability": 1.0}, {"pitch": 42, "start": 0.5, "length": 0.25, "velocity": 70, "probability": 1.0}, {"pitch": 42, "start": 1.5, "length": 0.25, "velocity": 70, "probability": 1.0}, {"pitch": 42, "start": 2.5, "length": 0.25, "velocity": 70, "probability": 1.0}, {"pitch": 42, "start": 3.5, "length": 0.25, "velocity": 70, "probability": 1.0}, {"pitch": 36, "start": 4.0, "length": 0.25, "velocity": 108, "probability": 1.0}, {"pitch": 36, "start": 6.5, "length": 0.25, "velocity": 100, "probability": 1.0}, {"pitch": 36, "start": 7.0, "length": 0.25, "velocity": 96, "probability": 1.0}, {"pitch": 38, "start": 5.0, "length": 0.25, "velocity": 105, "probability": 1.0}, {"pitch": 38, "start": 7.0, "length": 0.25, "velocity": 102, "probability": 1.0}, {"pitch": 38, "start": 7.75, "length": 0.25, "velocity": 60, "probability": 1.0}, {"pitch": 42, "start": 4.5, "length": 0.25, "velocity": 70, "probability": 1.0}, {"pitch": 42, "start": 5.5, "length": 0.25, "velocity": 70, "probability": 1.0}, {"pitch": 42, "start": 6.5, "length": 0.25, "velocity": 70, "probability": 1.0}, {"pitch": 42, "start": 7.5, "length": 0.25, "velocity": 70, "probability": 1.0}, {"pitch": 36, "start": 8.0, "length": 0.25, "velocity": 108, "probability": 1.0}, {"pitch": 36, "start": 10.5, "length": 0.25, "velocity": 100, "probability": 1.0}, {"pitch": 36, "start": 11.0, "length": 0.25, "velocity": 96, "probability": 1.0}, {"pitch": 38, "start": 9.0, "length": 0.25, "velocity": 105, "probability": 1.0}, {"pitch": 38, "start": 11.0, "length": 0.25, "velocity": 102, "probability": 1.0}, {"pitch": 38, "start": 11.75, "length": 0.25, "velocity": 60, "probability": 1.0}, {"pitch": 42, "start": 8.5, "length": 0.25, "velocity": 70, "probability": 1.0}, {"pitch": 42, "start": 9.5, "length": 0.25, "velocity": 70, "probability": 1.0}, {"pitch": 42, "start": 10.5, "length": 0.25, "velocity": 70, "probability": 1.0}, {"pitch": 42, "start": 11.5, "length": 0.25, "velocity": 70, "probability": 1.0}, {"pitch": 36, "start": 12.0, "length": 0.25, "velocity": 108, "probability": 1.0}, {"pitch": 36, "start": 14.5, "length": 0.25, "velocity": 100, "probability": 1.0}, {"pitch": 36, "start": 15.0, "length": 0.25, "velocity": 96, "probability": 1.0}, {"pitch": 38, "start": 13.0, "length": 0.25, "velocity": 105, "probability": 1.0}, {"pitch": 38, "start": 15.0, "length": 0.25, "velocity": 102, "probability": 1.0}, {"pitch": 38, "start": 15.75, "length": 0.25, "velocity": 60, "probability": 1.0}, {"pitch": 42, "start": 12.5, "length": 0.25, "velocity": 70, "probability": 1.0}, {"pitch": 42, "start": 13.5, "length": 0.25, "velocity": 70, "probability": 1.0}, {"pitch": 42, "start": 14.5, "length": 0.25, "velocity": 70, "probability": 1.0}, {"pitch": 42, "start": 15.5, "length": 0.25, "velocity": 70, "probability": 1.0}, {"pitch": 36, "start": 16.0, "length": 0.25, "velocity": 108, "probability": 1.0}, {"pitch": 36, "start": 18.5, "length": 0.25, "velocity": 100, "probability": 1.0}, {"pitch": 36, "start": 19.0, "length": 0.25, "velocity": 96, "probability": 1.0}, {"pitch": 38, "start": 17.0, "length": 0.25, "velocity": 105, "probability": 1.0}, {"pitch": 38, "start": 19.0, "length": 0.25, "velocity": 102, "probability": 1.0}, {"pitch": 38, "start": 19.75, "length": 0.25, "velocity": 60, "probability": 1.0}, {"pitch": 42, "start": 16.5, "length": 0.25, "velocity": 70, "probability": 1.0}, {"pitch": 42, "start": 17.5, "length": 0.25, "velocity": 70, "probability": 1.0}, {"pitch": 42, "start": 18.5, "length": 0.25, "velocity": 70, "probability": 1.0}, {"pitch": 42, "start": 19.5, "length": 0.25, "velocity": 70, "probability": 1.0}, {"pitch": 36, "start": 20.0, "length": 0.25, "velocity": 108, "probability": 1.0}, {"pitch": 36, "start": 22.5, "length": 0.25, "velocity": 100, "probability": 1.0}, {"pitch": 36, "start": 23.0, "length": 0.25, "velocity": 96, "probability": 1.0}, {"pitch": 38, "start": 21.0, "length": 0.25, "velocity": 105, "probability": 1.0}, {"pitch": 38, "start": 23.0, "length": 0.25, "velocity": 102, "probability": 1.0}, {"pitch": 38, "start": 23.75, "length": 0.25, "velocity": 60, "probability": 1.0}, {"pitch": 42, "start": 20.5, "length": 0.25, "velocity": 70, "probability": 1.0}, {"pitch": 42, "start": 21.5, "length": 0.25, "velocity": 70, "probability": 1.0}, {"pitch": 42, "start": 22.5, "length": 0.25, "velocity": 70, "probability": 1.0}, {"pitch": 42, "start": 23.5, "length": 0.25, "velocity": 70, "probability": 1.0}, {"pitch": 36, "start": 24.0, "length": 0.25, "velocity": 108, "probability": 1.0}, {"pitch": 36, "start": 26.5, "length": 0.25, "velocity": 100, "probability": 1.0}, {"pitch": 36, "start": 27.0, "length": 0.25, "velocity": 96, "probability": 1.0}, {"pitch": 38, "start": 25.0, "length": 0.25, "velocity": 105, "probability": 1.0}, {"pitch": 38, "start": 27.0, "length": 0.25, "velocity": 102, "probability": 1.0}, {"pitch": 38, "start": 27.75, "length": 0.25, "velocity": 60, "probability": 1.0}, {"pitch": 42, "start": 24.5, "length": 0.25, "velocity": 70, "probability": 1.0}, {"pitch": 42, "start": 25.5, "length": 0.25, "velocity": 70, "probability": 1.0}, {"pitch": 42, "start": 26.5, "length": 0.25, "velocity": 70, "probability": 1.0}, {"pitch": 42, "start": 27.5, "length": 0.25, "velocity": 70, "probability": 1.0}, {"pitch": 36, "start": 28.0, "length": 0.25, "velocity": 108, "probability": 1.0}, {"pitch": 36, "start": 30.5, "length": 0.25, "velocity": 100, "probability": 1.0}, {"pitch": 36, "start": 31.0, "length": 0.25, "velocity": 96, "probability": 1.0}, {"pitch": 38, "start": 29.0, "length": 0.25, "velocity": 105, "probability": 1.0}, {"pitch": 38, "start": 31.0, "length": 0.25, "velocity": 102, "probability": 1.0}, {"pitch": 38, "start": 31.75, "length": 0.25, "velocity": 60, "probability": 1.0}, {"pitch": 42, "start": 28.5, "length": 0.25, "velocity": 70, "probability": 1.0}, {"pitch": 42, "start": 29.5, "length": 0.25, "velocity": 70, "probability": 1.0}, {"pitch": 42, "start": 30.5, "length": 0.25, "velocity": 70, "probability": 1.0}, {"pitch": 42, "start": 31.5, "length": 0.25, "velocity": 70, "probability": 1.0}], "groove": null, "pattern": "breakbeat"}, {"section": "s8", "bars": 4, "notes": [{"pitch": 36, "start": 0.0, "length": 0.25, "velocity": 95, "probability": 1.0}, {"pitch": 38, "start": 2.0, "length": 0.25, "velocity": 90, "probability": 1.0}, {"pitch": 36, "start": 4.0, "length": 0.25, "velocity": 95, "probability": 1.0}, {"pitch": 38, "start": 6.0, "length": 0.25, "velocity": 90, "probability": 1.0}, {"pitch": 36, "start": 8.0, "length": 0.25, "velocity": 95, "probability": 1.0}, {"pitch": 38, "start": 10.0, "length": 0.25, "velocity": 90, "probability": 1.0}, {"pitch": 36, "start": 12.0, "length": 0.25, "velocity": 95, "probability": 1.0}, {"pitch": 38, "start": 14.0, "length": 0.25, "velocity": 90, "probability": 1.0}], "groove": null, "pattern": "sparse"}], "mix": {"volume_db": -3.0, "pan": 0.0}, "instrument_hint": "fast amen breakbeat with sharp snare and hi-hat rolls"}, {"id": "t2", "role": "bass", "name": "Sub Bass", "clips": [{"section": "s1", "bars": 4, "notes": [{"pitch": 40, "start": 0.0, "length": 3.9, "velocity": 95, "probability": 1.0}, {"pitch": 45, "start": 4.0, "length": 3.9, "velocity": 95, "probability": 1.0}, {"pitch": 47, "start": 8.0, "length": 3.9, "velocity": 95, "probability": 1.0}, {"pitch": 40, "start": 12.0, "length": 3.9, "velocity": 95, "probability": 1.0}], "groove": null, "pattern": "root_hold"}, {"section": "s2", "bars": 8, "notes": [{"pitch": 40, "start": 0.0, "length": 0.5, "velocity": 105, "probability": 1.0}, {"pitch": 40, "start": 0.75, "length": 0.25, "velocity": 60, "probability": 1.0}, {"pitch": 40, "start": 1.5, "length": 0.5, "velocity": 95, "probability": 1.0}, {"pitch": 40, "start": 2.0, "length": 0.5, "velocity": 40, "probability": 1.0}, {"pitch": 40, "start": 2.75, "length": 1.0, "velocity": 100, "probability": 1.0}, {"pitch": 45, "start": 4.0, "length": 0.5, "velocity": 105, "probability": 1.0}, {"pitch": 45, "start": 4.75, "length": 0.25, "velocity": 60, "probability": 1.0}, {"pitch": 45, "start": 5.5, "length": 0.5, "velocity": 95, "probability": 1.0}, {"pitch": 45, "start": 6.0, "length": 0.5, "velocity": 40, "probability": 1.0}, {"pitch": 45, "start": 6.75, "length": 1.0, "velocity": 100, "probability": 1.0}, {"pitch": 47, "start": 8.0, "length": 0.5, "velocity": 105, "probability": 1.0}, {"pitch": 47, "start": 8.75, "length": 0.25, "velocity": 60, "probability": 1.0}, {"pitch": 47, "start": 9.5, "length": 0.5, "velocity": 95, "probability": 1.0}, {"pitch": 47, "start": 10.0, "length": 0.5, "velocity": 40, "probability": 1.0}, {"pitch": 47, "start": 10.75, "length": 1.0, "velocity": 100, "probability": 1.0}, {"pitch": 40, "start": 12.0, "length": 0.5, "velocity": 105, "probability": 1.0}, {"pitch": 40, "start": 12.75, "length": 0.25, "velocity": 60, "probability": 1.0}, {"pitch": 40, "start": 13.5, "length": 0.5, "velocity": 95, "probability": 1.0}, {"pitch": 40, "start": 14.0, "length": 0.5, "velocity": 40, "probability": 1.0}, {"pitch": 40, "start": 14.75, "length": 1.0, "velocity": 100, "probability": 1.0}, {"pitch": 40, "start": 16.0, "length": 0.5, "velocity": 105, "probability": 1.0}, {"pitch": 40, "start": 16.75, "length": 0.25, "velocity": 60, "probability": 1.0}, {"pitch": 40, "start": 17.5, "length": 0.5, "velocity": 95, "probability": 1.0}, {"pitch": 40, "start": 18.0, "length": 0.5, "velocity": 40, "probability": 1.0}, {"pitch": 40, "start": 18.75, "length": 1.0, "velocity": 100, "probability": 1.0}, {"pitch": 45, "start": 20.0, "length": 0.5, "velocity": 105, "probability": 1.0}, {"pitch": 45, "start": 20.75, "length": 0.25, "velocity": 60, "probability": 1.0}, {"pitch": 45, "start": 21.5, "length": 0.5, "velocity": 95, "probability": 1.0}, {"pitch": 45, "start": 22.0, "length": 0.5, "velocity": 40, "probability": 1.0}, {"pitch": 45, "start": 22.75, "length": 1.0, "velocity": 100, "probability": 1.0}, {"pitch": 47, "start": 24.0, "length": 0.5, "velocity": 105, "probability": 1.0}, {"pitch": 47, "start": 24.75, "length": 0.25, "velocity": 60, "probability": 1.0}, {"pitch": 47, "start": 25.5, "length": 0.5, "velocity": 95, "probability": 1.0}, {"pitch": 47, "start": 26.0, "length": 0.5, "velocity": 40, "probability": 1.0}, {"pitch": 47, "start": 26.75, "length": 1.0, "velocity": 100, "probability": 1.0}, {"pitch": 40, "start": 28.0, "length": 0.5, "velocity": 105, "probability": 1.0}, {"pitch": 40, "start": 28.75, "length": 0.25, "velocity": 60, "probability": 1.0}, {"pitch": 40, "start": 29.5, "length": 0.5, "velocity": 95, "probability": 1.0}, {"pitch": 40, "start": 30.0, "length": 0.5, "velocity": 40, "probability": 1.0}, {"pitch": 40, "start": 30.75, "length": 1.0, "velocity": 100, "probability": 1.0}], "groove": null, "pattern": "syncopated_ghost"}, {"section": "s3", "bars": 4, "notes": [{"pitch": 40, "start": 0.0, "length": 0.5, "velocity": 105, "probability": 1.0}, {"pitch": 40, "start": 0.75, "length": 0.25, "velocity": 60, "probability": 1.0}, {"pitch": 40, "start": 1.5, "length": 0.5, "velocity": 95, "probability": 1.0}, {"pitch": 40, "start": 2.0, "length": 0.5, "velocity": 40, "probability": 1.0}, {"pitch": 40, "start": 2.75, "length": 1.0, "velocity": 100, "probability": 1.0}, {"pitch": 45, "start": 4.0, "length": 0.5, "velocity": 105, "probability": 1.0}, {"pitch": 45, "start": 4.75, "length": 0.25, "velocity": 60, "probability": 1.0}, {"pitch": 45, "start": 5.5, "length": 0.5, "velocity": 95, "probability": 1.0}, {"pitch": 45, "start": 6.0, "length": 0.5, "velocity": 40, "probability": 1.0}, {"pitch": 45, "start": 6.75, "length": 1.0, "velocity": 100, "probability": 1.0}, {"pitch": 47, "start": 8.0, "length": 0.5, "velocity": 105, "probability": 1.0}, {"pitch": 47, "start": 8.75, "length": 0.25, "velocity": 60, "probability": 1.0}, {"pitch": 47, "start": 9.5, "length": 0.5, "velocity": 95, "probability": 1.0}, {"pitch": 47, "start": 10.0, "length": 0.5, "velocity": 40, "probability": 1.0}, {"pitch": 47, "start": 10.75, "length": 1.0, "velocity": 100, "probability": 1.0}, {"pitch": 40, "start": 12.0, "length": 0.5, "velocity": 105, "probability": 1.0}, {"pitch": 40, "start": 12.75, "length": 0.25, "velocity": 60, "probability": 1.0}, {"pitch": 40, "start": 13.5, "length": 0.5, "velocity": 95, "probability": 1.0}, {"pitch": 40, "start": 14.0, "length": 0.5, "velocity": 40, "probability": 1.0}, {"pitch": 40, "start": 14.75, "length": 1.0, "velocity": 100, "probability": 1.0}], "groove": null, "pattern": "syncopated_ghost"}, {"section": "s4", "bars": 8, "notes": [{"pitch": 40, "start": 0.0, "length": 0.5, "velocity": 105, "probability": 1.0}, {"pitch": 40, "start": 0.75, "length": 0.25, "velocity": 60, "probability": 1.0}, {"pitch": 40, "start": 1.5, "length": 0.5, "velocity": 95, "probability": 1.0}, {"pitch": 40, "start": 2.0, "length": 0.5, "velocity": 40, "probability": 1.0}, {"pitch": 40, "start": 2.75, "length": 1.0, "velocity": 100, "probability": 1.0}, {"pitch": 45, "start": 4.0, "length": 0.5, "velocity": 105, "probability": 1.0}, {"pitch": 45, "start": 4.75, "length": 0.25, "velocity": 60, "probability": 1.0}, {"pitch": 45, "start": 5.5, "length": 0.5, "velocity": 95, "probability": 1.0}, {"pitch": 45, "start": 6.0, "length": 0.5, "velocity": 40, "probability": 1.0}, {"pitch": 45, "start": 6.75, "length": 1.0, "velocity": 100, "probability": 1.0}, {"pitch": 47, "start": 8.0, "length": 0.5, "velocity": 105, "probability": 1.0}, {"pitch": 47, "start": 8.75, "length": 0.25, "velocity": 60, "probability": 1.0}, {"pitch": 47, "start": 9.5, "length": 0.5, "velocity": 95, "probability": 1.0}, {"pitch": 47, "start": 10.0, "length": 0.5, "velocity": 40, "probability": 1.0}, {"pitch": 47, "start": 10.75, "length": 1.0, "velocity": 100, "probability": 1.0}, {"pitch": 40, "start": 12.0, "length": 0.5, "velocity": 105, "probability": 1.0}, {"pitch": 40, "start": 12.75, "length": 0.25, "velocity": 60, "probability": 1.0}, {"pitch": 40, "start": 13.5, "length": 0.5, "velocity": 95, "probability": 1.0}, {"pitch": 40, "start": 14.0, "length": 0.5, "velocity": 40, "probability": 1.0}, {"pitch": 40, "start": 14.75, "length": 1.0, "velocity": 100, "probability": 1.0}, {"pitch": 40, "start": 16.0, "length": 0.5, "velocity": 105, "probability": 1.0}, {"pitch": 40, "start": 16.75, "length": 0.25, "velocity": 60, "probability": 1.0}, {"pitch": 40, "start": 17.5, "length": 0.5, "velocity": 95, "probability": 1.0}, {"pitch": 40, "start": 18.0, "length": 0.5, "velocity": 40, "probability": 1.0}, {"pitch": 40, "start": 18.75, "length": 1.0, "velocity": 100, "probability": 1.0}, {"pitch": 45, "start": 20.0, "length": 0.5, "velocity": 105, "probability": 1.0}, {"pitch": 45, "start": 20.75, "length": 0.25, "velocity": 60, "probability": 1.0}, {"pitch": 45, "start": 21.5, "length": 0.5, "velocity": 95, "probability": 1.0}, {"pitch": 45, "start": 22.0, "length": 0.5, "velocity": 40, "probability": 1.0}, {"pitch": 45, "start": 22.75, "length": 1.0, "velocity": 100, "probability": 1.0}, {"pitch": 47, "start": 24.0, "length": 0.5, "velocity": 105, "probability": 1.0}, {"pitch": 47, "start": 24.75, "length": 0.25, "velocity": 60, "probability": 1.0}, {"pitch": 47, "start": 25.5, "length": 0.5, "velocity": 95, "probability": 1.0}, {"pitch": 47, "start": 26.0, "length": 0.5, "velocity": 40, "probability": 1.0}, {"pitch": 47, "start": 26.75, "length": 1.0, "velocity": 100, "probability": 1.0}, {"pitch": 40, "start": 28.0, "length": 0.5, "velocity": 105, "probability": 1.0}, {"pitch": 40, "start": 28.75, "length": 0.25, "velocity": 60, "probability": 1.0}, {"pitch": 40, "start": 29.5, "length": 0.5, "velocity": 95, "probability": 1.0}, {"pitch": 40, "start": 30.0, "length": 0.5, "velocity": 40, "probability": 1.0}, {"pitch": 40, "start": 30.75, "length": 1.0, "velocity": 100, "probability": 1.0}], "groove": null, "pattern": "syncopated_ghost"}, {"section": "s5", "bars": 8, "notes": [{"pitch": 40, "start": 0.0, "length": 0.5, "velocity": 105, "probability": 1.0}, {"pitch": 40, "start": 0.75, "length": 0.25, "velocity": 60, "probability": 1.0}, {"pitch": 40, "start": 1.5, "length": 0.5, "velocity": 95, "probability": 1.0}, {"pitch": 40, "start": 2.0, "length": 0.5, "velocity": 40, "probability": 1.0}, {"pitch": 40, "start": 2.75, "length": 1.0, "velocity": 100, "probability": 1.0}, {"pitch": 45, "start": 4.0, "length": 0.5, "velocity": 105, "probability": 1.0}, {"pitch": 45, "start": 4.75, "length": 0.25, "velocity": 60, "probability": 1.0}, {"pitch": 45, "start": 5.5, "length": 0.5, "velocity": 95, "probability": 1.0}, {"pitch": 45, "start": 6.0, "length": 0.5, "velocity": 40, "probability": 1.0}, {"pitch": 45, "start": 6.75, "length": 1.0, "velocity": 100, "probability": 1.0}, {"pitch": 47, "start": 8.0, "length": 0.5, "velocity": 105, "probability": 1.0}, {"pitch": 47, "start": 8.75, "length": 0.25, "velocity": 60, "probability": 1.0}, {"pitch": 47, "start": 9.5, "length": 0.5, "velocity": 95, "probability": 1.0}, {"pitch": 47, "start": 10.0, "length": 0.5, "velocity": 40, "probability": 1.0}, {"pitch": 47, "start": 10.75, "length": 1.0, "velocity": 100, "probability": 1.0}, {"pitch": 40, "start": 12.0, "length": 0.5, "velocity": 105, "probability": 1.0}, {"pitch": 40, "start": 12.75, "length": 0.25, "velocity": 60, "probability": 1.0}, {"pitch": 40, "start": 13.5, "length": 0.5, "velocity": 95, "probability": 1.0}, {"pitch": 40, "start": 14.0, "length": 0.5, "velocity": 40, "probability": 1.0}, {"pitch": 40, "start": 14.75, "length": 1.0, "velocity": 100, "probability": 1.0}, {"pitch": 40, "start": 16.0, "length": 0.5, "velocity": 105, "probability": 1.0}, {"pitch": 40, "start": 16.75, "length": 0.25, "velocity": 60, "probability": 1.0}, {"pitch": 40, "start": 17.5, "length": 0.5, "velocity": 95, "probability": 1.0}, {"pitch": 40, "start": 18.0, "length": 0.5, "velocity": 40, "probability": 1.0}, {"pitch": 40, "start": 18.75, "length": 1.0, "velocity": 100, "probability": 1.0}, {"pitch": 45, "start": 20.0, "length": 0.5, "velocity": 105, "probability": 1.0}, {"pitch": 45, "start": 20.75, "length": 0.25, "velocity": 60, "probability": 1.0}, {"pitch": 45, "start": 21.5, "length": 0.5, "velocity": 95, "probability": 1.0}, {"pitch": 45, "start": 22.0, "length": 0.5, "velocity": 40, "probability": 1.0}, {"pitch": 45, "start": 22.75, "length": 1.0, "velocity": 100, "probability": 1.0}, {"pitch": 47, "start": 24.0, "length": 0.5, "velocity": 105, "probability": 1.0}, {"pitch": 47, "start": 24.75, "length": 0.25, "velocity": 60, "probability": 1.0}, {"pitch": 47, "start": 25.5, "length": 0.5, "velocity": 95, "probability": 1.0}, {"pitch": 47, "start": 26.0, "length": 0.5, "velocity": 40, "probability": 1.0}, {"pitch": 47, "start": 26.75, "length": 1.0, "velocity": 100, "probability": 1.0}, {"pitch": 40, "start": 28.0, "length": 0.5, "velocity": 105, "probability": 1.0}, {"pitch": 40, "start": 28.75, "length": 0.25, "velocity": 60, "probability": 1.0}, {"pitch": 40, "start": 29.5, "length": 0.5, "velocity": 95, "probability": 1.0}, {"pitch": 40, "start": 30.0, "length": 0.5, "velocity": 40, "probability": 1.0}, {"pitch": 40, "start": 30.75, "length": 1.0, "velocity": 100, "probability": 1.0}], "groove": null, "pattern": "syncopated_ghost"}, {"section": "s6", "bars": 4, "notes": [{"pitch": 40, "start": 0.0, "length": 0.5, "velocity": 105, "probability": 1.0}, {"pitch": 40, "start": 0.75, "length": 0.25, "velocity": 60, "probability": 1.0}, {"pitch": 40, "start": 1.5, "length": 0.5, "velocity": 95, "probability": 1.0}, {"pitch": 40, "start": 2.0, "length": 0.5, "velocity": 40, "probability": 1.0}, {"pitch": 40, "start": 2.75, "length": 1.0, "velocity": 100, "probability": 1.0}, {"pitch": 45, "start": 4.0, "length": 0.5, "velocity": 105, "probability": 1.0}, {"pitch": 45, "start": 4.75, "length": 0.25, "velocity": 60, "probability": 1.0}, {"pitch": 45, "start": 5.5, "length": 0.5, "velocity": 95, "probability": 1.0}, {"pitch": 45, "start": 6.0, "length": 0.5, "velocity": 40, "probability": 1.0}, {"pitch": 45, "start": 6.75, "length": 1.0, "velocity": 100, "probability": 1.0}, {"pitch": 47, "start": 8.0, "length": 0.5, "velocity": 105, "probability": 1.0}, {"pitch": 47, "start": 8.75, "length": 0.25, "velocity": 60, "probability": 1.0}, {"pitch": 47, "start": 9.5, "length": 0.5, "velocity": 95, "probability": 1.0}, {"pitch": 47, "start": 10.0, "length": 0.5, "velocity": 40, "probability": 1.0}, {"pitch": 47, "start": 10.75, "length": 1.0, "velocity": 100, "probability": 1.0}, {"pitch": 40, "start": 12.0, "length": 0.5, "velocity": 105, "probability": 1.0}, {"pitch": 40, "start": 12.75, "length": 0.25, "velocity": 60, "probability": 1.0}, {"pitch": 40, "start": 13.5, "length": 0.5, "velocity": 95, "probability": 1.0}, {"pitch": 40, "start": 14.0, "length": 0.5, "velocity": 40, "probability": 1.0}, {"pitch": 40, "start": 14.75, "length": 1.0, "velocity": 100, "probability": 1.0}], "groove": null, "pattern": "syncopated_ghost"}, {"section": "s7", "bars": 8, "notes": [{"pitch": 40, "start": 0.0, "length": 0.5, "velocity": 105, "probability": 1.0}, {"pitch": 40, "start": 0.75, "length": 0.25, "velocity": 60, "probability": 1.0}, {"pitch": 40, "start": 1.5, "length": 0.5, "velocity": 95, "probability": 1.0}, {"pitch": 40, "start": 2.0, "length": 0.5, "velocity": 40, "probability": 1.0}, {"pitch": 40, "start": 2.75, "length": 1.0, "velocity": 100, "probability": 1.0}, {"pitch": 45, "start": 4.0, "length": 0.5, "velocity": 105, "probability": 1.0}, {"pitch": 45, "start": 4.75, "length": 0.25, "velocity": 60, "probability": 1.0}, {"pitch": 45, "start": 5.5, "length": 0.5, "velocity": 95, "probability": 1.0}, {"pitch": 45, "start": 6.0, "length": 0.5, "velocity": 40, "probability": 1.0}, {"pitch": 45, "start": 6.75, "length": 1.0, "velocity": 100, "probability": 1.0}, {"pitch": 47, "start": 8.0, "length": 0.5, "velocity": 105, "probability": 1.0}, {"pitch": 47, "start": 8.75, "length": 0.25, "velocity": 60, "probability": 1.0}, {"pitch": 47, "start": 9.5, "length": 0.5, "velocity": 95, "probability": 1.0}, {"pitch": 47, "start": 10.0, "length": 0.5, "velocity": 40, "probability": 1.0}, {"pitch": 47, "start": 10.75, "length": 1.0, "velocity": 100, "probability": 1.0}, {"pitch": 40, "start": 12.0, "length": 0.5, "velocity": 105, "probability": 1.0}, {"pitch": 40, "start": 12.75, "length": 0.25, "velocity": 60, "probability": 1.0}, {"pitch": 40, "start": 13.5, "length": 0.5, "velocity": 95, "probability": 1.0}, {"pitch": 40, "start": 14.0, "length": 0.5, "velocity": 40, "probability": 1.0}, {"pitch": 40, "start": 14.75, "length": 1.0, "velocity": 100, "probability": 1.0}, {"pitch": 40, "start": 16.0, "length": 0.5, "velocity": 105, "probability": 1.0}, {"pitch": 40, "start": 16.75, "length": 0.25, "velocity": 60, "probability": 1.0}, {"pitch": 40, "start": 17.5, "length": 0.5, "velocity": 95, "probability": 1.0}, {"pitch": 40, "start": 18.0, "length": 0.5, "velocity": 40, "probability": 1.0}, {"pitch": 40, "start": 18.75, "length": 1.0, "velocity": 100, "probability": 1.0}, {"pitch": 45, "start": 20.0, "length": 0.5, "velocity": 105, "probability": 1.0}, {"pitch": 45, "start": 20.75, "length": 0.25, "velocity": 60, "probability": 1.0}, {"pitch": 45, "start": 21.5, "length": 0.5, "velocity": 95, "probability": 1.0}, {"pitch": 45, "start": 22.0, "length": 0.5, "velocity": 40, "probability": 1.0}, {"pitch": 45, "start": 22.75, "length": 1.0, "velocity": 100, "probability": 1.0}, {"pitch": 47, "start": 24.0, "length": 0.5, "velocity": 105, "probability": 1.0}, {"pitch": 47, "start": 24.75, "length": 0.25, "velocity": 60, "probability": 1.0}, {"pitch": 47, "start": 25.5, "length": 0.5, "velocity": 95, "probability": 1.0}, {"pitch": 47, "start": 26.0, "length": 0.5, "velocity": 40, "probability": 1.0}, {"pitch": 47, "start": 26.75, "length": 1.0, "velocity": 100, "probability": 1.0}, {"pitch": 40, "start": 28.0, "length": 0.5, "velocity": 105, "probability": 1.0}, {"pitch": 40, "start": 28.75, "length": 0.25, "velocity": 60, "probability": 1.0}, {"pitch": 40, "start": 29.5, "length": 0.5, "velocity": 95, "probability": 1.0}, {"pitch": 40, "start": 30.0, "length": 0.5, "velocity": 40, "probability": 1.0}, {"pitch": 40, "start": 30.75, "length": 1.0, "velocity": 100, "probability": 1.0}], "groove": null, "pattern": "syncopated_ghost"}, {"section": "s8", "bars": 4, "notes": [{"pitch": 40, "start": 0.0, "length": 3.9, "velocity": 95, "probability": 1.0}, {"pitch": 45, "start": 4.0, "length": 3.9, "velocity": 95, "probability": 1.0}, {"pitch": 47, "start": 8.0, "length": 3.9, "velocity": 95, "probability": 1.0}, {"pitch": 40, "start": 12.0, "length": 3.9, "velocity": 95, "probability": 1.0}], "groove": null, "pattern": "root_hold"}], "mix": {"volume_db": -1.0, "pan": 0.0}, "instrument_hint": "deep sub-bass with syncopated roots and sliding notes"}, {"id": "t3", "role": "chord", "name": "Atmospheric Pads", "clips": [{"section": "s1", "bars": 4, "notes": [{"pitch": 64, "start": 0.0, "length": 3.9, "velocity": 80, "probability": 1.0}, {"pitch": 67, "start": 0.0, "length": 3.9, "velocity": 80, "probability": 1.0}, {"pitch": 71, "start": 0.0, "length": 3.9, "velocity": 80, "probability": 1.0}, {"pitch": 69, "start": 4.0, "length": 3.9, "velocity": 80, "probability": 1.0}, {"pitch": 72, "start": 4.0, "length": 3.9, "velocity": 80, "probability": 1.0}, {"pitch": 76, "start": 4.0, "length": 3.9, "velocity": 80, "probability": 1.0}, {"pitch": 71, "start": 8.0, "length": 3.9, "velocity": 80, "probability": 1.0}, {"pitch": 74, "start": 8.0, "length": 3.9, "velocity": 80, "probability": 1.0}, {"pitch": 78, "start": 8.0, "length": 3.9, "velocity": 80, "probability": 1.0}, {"pitch": 64, "start": 12.0, "length": 3.9, "velocity": 80, "probability": 1.0}, {"pitch": 67, "start": 12.0, "length": 3.9, "velocity": 80, "probability": 1.0}, {"pitch": 71, "start": 12.0, "length": 3.9, "velocity": 80, "probability": 1.0}], "groove": null, "pattern": "sustained"}, {"section": "s2", "bars": 8, "notes": [{"pitch": 64, "start": 0.0, "length": 3.9, "velocity": 80, "probability": 1.0}, {"pitch": 67, "start": 0.0, "length": 3.9, "velocity": 80, "probability": 1.0}, {"pitch": 71, "start": 0.0, "length": 3.9, "velocity": 80, "probability": 1.0}, {"pitch": 69, "start": 4.0, "length": 3.9, "velocity": 80, "probability": 1.0}, {"pitch": 72, "start": 4.0, "length": 3.9, "velocity": 80, "probability": 1.0}, {"pitch": 76, "start": 4.0, "length": 3.9, "velocity": 80, "probability": 1.0}, {"pitch": 71, "start": 8.0, "length": 3.9, "velocity": 80, "probability": 1.0}, {"pitch": 74, "start": 8.0, "length": 3.9, "velocity": 80, "probability": 1.0}, {"pitch": 78, "start": 8.0, "length": 3.9, "velocity": 80, "probability": 1.0}, {"pitch": 64, "start": 12.0, "length": 3.9, "velocity": 80, "probability": 1.0}, {"pitch": 67, "start": 12.0, "length": 3.9, "velocity": 80, "probability": 1.0}, {"pitch": 71, "start": 12.0, "length": 3.9, "velocity": 80, "probability": 1.0}, {"pitch": 64, "start": 16.0, "length": 3.9, "velocity": 80, "probability": 1.0}, {"pitch": 67, "start": 16.0, "length": 3.9, "velocity": 80, "probability": 1.0}, {"pitch": 71, "start": 16.0, "length": 3.9, "velocity": 80, "probability": 1.0}, {"pitch": 69, "start": 20.0, "length": 3.9, "velocity": 80, "probability": 1.0}, {"pitch": 72, "start": 20.0, "length": 3.9, "velocity": 80, "probability": 1.0}, {"pitch": 76, "start": 20.0, "length": 3.9, "velocity": 80, "probability": 1.0}, {"pitch": 71, "start": 24.0, "length": 3.9, "velocity": 80, "probability": 1.0}, {"pitch": 74, "start": 24.0, "length": 3.9, "velocity": 80, "probability": 1.0}, {"pitch": 78, "start": 24.0, "length": 3.9, "velocity": 80, "probability": 1.0}, {"pitch": 64, "start": 28.0, "length": 3.9, "velocity": 80, "probability": 1.0}, {"pitch": 67, "start": 28.0, "length": 3.9, "velocity": 80, "probability": 1.0}, {"pitch": 71, "start": 28.0, "length": 3.9, "velocity": 80, "probability": 1.0}], "groove": null, "pattern": "sustained"}, {"section": "s3", "bars": 4, "notes": [{"pitch": 64, "start": 0.0, "length": 3.9, "velocity": 80, "probability": 1.0}, {"pitch": 67, "start": 0.0, "length": 3.9, "velocity": 80, "probability": 1.0}, {"pitch": 71, "start": 0.0, "length": 3.9, "velocity": 80, "probability": 1.0}, {"pitch": 69, "start": 4.0, "length": 3.9, "velocity": 80, "probability": 1.0}, {"pitch": 72, "start": 4.0, "length": 3.9, "velocity": 80, "probability": 1.0}, {"pitch": 76, "start": 4.0, "length": 3.9, "velocity": 80, "probability": 1.0}, {"pitch": 71, "start": 8.0, "length": 3.9, "velocity": 80, "probability": 1.0}, {"pitch": 74, "start": 8.0, "length": 3.9, "velocity": 80, "probability": 1.0}, {"pitch": 78, "start": 8.0, "length": 3.9, "velocity": 80, "probability": 1.0}, {"pitch": 64, "start": 12.0, "length": 3.9, "velocity": 80, "probability": 1.0}, {"pitch": 67, "start": 12.0, "length": 3.9, "velocity": 80, "probability": 1.0}, {"pitch": 71, "start": 12.0, "length": 3.9, "velocity": 80, "probability": 1.0}], "groove": null, "pattern": "sustained"}, {"section": "s4", "bars": 8, "notes": [{"pitch": 64, "start": 0.0, "length": 3.9, "velocity": 80, "probability": 1.0}, {"pitch": 67, "start": 0.0, "length": 3.9, "velocity": 80, "probability": 1.0}, {"pitch": 71, "start": 0.0, "length": 3.9, "velocity": 80, "probability": 1.0}, {"pitch": 69, "start": 4.0, "length": 3.9, "velocity": 80, "probability": 1.0}, {"pitch": 72, "start": 4.0, "length": 3.9, "velocity": 80, "probability": 1.0}, {"pitch": 76, "start": 4.0, "length": 3.9, "velocity": 80, "probability": 1.0}, {"pitch": 71, "start": 8.0, "length": 3.9, "velocity": 80, "probability": 1.0}, {"pitch": 74, "start": 8.0, "length": 3.9, "velocity": 80, "probability": 1.0}, {"pitch": 78, "start": 8.0, "length": 3.9, "velocity": 80, "probability": 1.0}, {"pitch": 64, "start": 12.0, "length": 3.9, "velocity": 80, "probability": 1.0}, {"pitch": 67, "start": 12.0, "length": 3.9, "velocity": 80, "probability": 1.0}, {"pitch": 71, "start": 12.0, "length": 3.9, "velocity": 80, "probability": 1.0}, {"pitch": 64, "start": 16.0, "length": 3.9, "velocity": 80, "probability": 1.0}, {"pitch": 67, "start": 16.0, "length": 3.9, "velocity": 80, "probability": 1.0}, {"pitch": 71, "start": 16.0, "length": 3.9, "velocity": 80, "probability": 1.0}, {"pitch": 69, "start": 20.0, "length": 3.9, "velocity": 80, "probability": 1.0}, {"pitch": 72, "start": 20.0, "length": 3.9, "velocity": 80, "probability": 1.0}, {"pitch": 76, "start": 20.0, "length": 3.9, "velocity": 80, "probability": 1.0}, {"pitch": 71, "start": 24.0, "length": 3.9, "velocity": 80, "probability": 1.0}, {"pitch": 74, "start": 24.0, "length": 3.9, "velocity": 80, "probability": 1.0}, {"pitch": 78, "start": 24.0, "length": 3.9, "velocity": 80, "probability": 1.0}, {"pitch": 64, "start": 28.0, "length": 3.9, "velocity": 80, "probability": 1.0}, {"pitch": 67, "start": 28.0, "length": 3.9, "velocity": 80, "probability": 1.0}, {"pitch": 71, "start": 28.0, "length": 3.9, "velocity": 80, "probability": 1.0}], "groove": null, "pattern": "sustained"}, {"section": "s5", "bars": 8, "notes": [{"pitch": 64, "start": 0.0, "length": 3.9, "velocity": 80, "probability": 1.0}, {"pitch": 67, "start": 0.0, "length": 3.9, "velocity": 80, "probability": 1.0}, {"pitch": 71, "start": 0.0, "length": 3.9, "velocity": 80, "probability": 1.0}, {"pitch": 69, "start": 4.0, "length": 3.9, "velocity": 80, "probability": 1.0}, {"pitch": 72, "start": 4.0, "length": 3.9, "velocity": 80, "probability": 1.0}, {"pitch": 76, "start": 4.0, "length": 3.9, "velocity": 80, "probability": 1.0}, {"pitch": 71, "start": 8.0, "length": 3.9, "velocity": 80, "probability": 1.0}, {"pitch": 74, "start": 8.0, "length": 3.9, "velocity": 80, "probability": 1.0}, {"pitch": 78, "start": 8.0, "length": 3.9, "velocity": 80, "probability": 1.0}, {"pitch": 64, "start": 12.0, "length": 3.9, "velocity": 80, "probability": 1.0}, {"pitch": 67, "start": 12.0, "length": 3.9, "velocity": 80, "probability": 1.0}, {"pitch": 71, "start": 12.0, "length": 3.9, "velocity": 80, "probability": 1.0}, {"pitch": 64, "start": 16.0, "length": 3.9, "velocity": 80, "probability": 1.0}, {"pitch": 67, "start": 16.0, "length": 3.9, "velocity": 80, "probability": 1.0}, {"pitch": 71, "start": 16.0, "length": 3.9, "velocity": 80, "probability": 1.0}, {"pitch": 69, "start": 20.0, "length": 3.9, "velocity": 80, "probability": 1.0}, {"pitch": 72, "start": 20.0, "length": 3.9, "velocity": 80, "probability": 1.0}, {"pitch": 76, "start": 20.0, "length": 3.9, "velocity": 80, "probability": 1.0}, {"pitch": 71, "start": 24.0, "length": 3.9, "velocity": 80, "probability": 1.0}, {"pitch": 74, "start": 24.0, "length": 3.9, "velocity": 80, "probability": 1.0}, {"pitch": 78, "start": 24.0, "length": 3.9, "velocity": 80, "probability": 1.0}, {"pitch": 64, "start": 28.0, "length": 3.9, "velocity": 80, "probability": 1.0}, {"pitch": 67, "start": 28.0, "length": 3.9, "velocity": 80, "probability": 1.0}, {"pitch": 71, "start": 28.0, "length": 3.9, "velocity": 80, "probability": 1.0}], "groove": null, "pattern": "sustained"}, {"section": "s6", "bars": 4, "notes": [{"pitch": 64, "start": 0.0, "length": 3.9, "velocity": 80, "probability": 1.0}, {"pitch": 67, "start": 0.0, "length": 3.9, "velocity": 80, "probability": 1.0}, {"pitch": 71, "start": 0.0, "length": 3.9, "velocity": 80, "probability": 1.0}, {"pitch": 69, "start": 4.0, "length": 3.9, "velocity": 80, "probability": 1.0}, {"pitch": 72, "start": 4.0, "length": 3.9, "velocity": 80, "probability": 1.0}, {"pitch": 76, "start": 4.0, "length": 3.9, "velocity": 80, "probability": 1.0}, {"pitch": 71, "start": 8.0, "length": 3.9, "velocity": 80, "probability": 1.0}, {"pitch": 74, "start": 8.0, "length": 3.9, "velocity": 80, "probability": 1.0}, {"pitch": 78, "start": 8.0, "length": 3.9, "velocity": 80, "probability": 1.0}, {"pitch": 64, "start": 12.0, "length": 3.9, "velocity": 80, "probability": 1.0}, {"pitch": 67, "start": 12.0, "length": 3.9, "velocity": 80, "probability": 1.0}, {"pitch": 71, "start": 12.0, "length": 3.9, "velocity": 80, "probability": 1.0}], "groove": null, "pattern": "sustained"}, {"section": "s7", "bars": 8, "notes": [{"pitch": 64, "start": 0.0, "length": 3.9, "velocity": 80, "probability": 1.0}, {"pitch": 67, "start": 0.0, "length": 3.9, "velocity": 80, "probability": 1.0}, {"pitch": 71, "start": 0.0, "length": 3.9, "velocity": 80, "probability": 1.0}, {"pitch": 69, "start": 4.0, "length": 3.9, "velocity": 80, "probability": 1.0}, {"pitch": 72, "start": 4.0, "length": 3.9, "velocity": 80, "probability": 1.0}, {"pitch": 76, "start": 4.0, "length": 3.9, "velocity": 80, "probability": 1.0}, {"pitch": 71, "start": 8.0, "length": 3.9, "velocity": 80, "probability": 1.0}, {"pitch": 74, "start": 8.0, "length": 3.9, "velocity": 80, "probability": 1.0}, {"pitch": 78, "start": 8.0, "length": 3.9, "velocity": 80, "probability": 1.0}, {"pitch": 64, "start": 12.0, "length": 3.9, "velocity": 80, "probability": 1.0}, {"pitch": 67, "start": 12.0, "length": 3.9, "velocity": 80, "probability": 1.0}, {"pitch": 71, "start": 12.0, "length": 3.9, "velocity": 80, "probability": 1.0}, {"pitch": 64, "start": 16.0, "length": 3.9, "velocity": 80, "probability": 1.0}, {"pitch": 67, "start": 16.0, "length": 3.9, "velocity": 80, "probability": 1.0}, {"pitch": 71, "start": 16.0, "length": 3.9, "velocity": 80, "probability": 1.0}, {"pitch": 69, "start": 20.0, "length": 3.9, "velocity": 80, "probability": 1.0}, {"pitch": 72, "start": 20.0, "length": 3.9, "velocity": 80, "probability": 1.0}, {"pitch": 76, "start": 20.0, "length": 3.9, "velocity": 80, "probability": 1.0}, {"pitch": 71, "start": 24.0, "length": 3.9, "velocity": 80, "probability": 1.0}, {"pitch": 74, "start": 24.0, "length": 3.9, "velocity": 80, "probability": 1.0}, {"pitch": 78, "start": 24.0, "length": 3.9, "velocity": 80, "probability": 1.0}, {"pitch": 64, "start": 28.0, "length": 3.9, "velocity": 80, "probability": 1.0}, {"pitch": 67, "start": 28.0, "length": 3.9, "velocity": 80, "probability": 1.0}, {"pitch": 71, "start": 28.0, "length": 3.9, "velocity": 80, "probability": 1.0}], "groove": null, "pattern": "sustained"}, {"section": "s8", "bars": 4, "notes": [{"pitch": 64, "start": 0.0, "length": 3.9, "velocity": 80, "probability": 1.0}, {"pitch": 67, "start": 0.0, "length": 3.9, "velocity": 80, "probability": 1.0}, {"pitch": 71, "start": 0.0, "length": 3.9, "velocity": 80, "probability": 1.0}, {"pitch": 69, "start": 4.0, "length": 3.9, "velocity": 80, "probability": 1.0}, {"pitch": 72, "start": 4.0, "length": 3.9, "velocity": 80, "probability": 1.0}, {"pitch": 76, "start": 4.0, "length": 3.9, "velocity": 80, "probability": 1.0}, {"pitch": 71, "start": 8.0, "length": 3.9, "velocity": 80, "probability": 1.0}, {"pitch": 74, "start": 8.0, "length": 3.9, "velocity": 80, "probability": 1.0}, {"pitch": 78, "start": 8.0, "length": 3.9, "velocity": 80, "probability": 1.0}, {"pitch": 64, "start": 12.0, "length": 3.9, "velocity": 80, "probability": 1.0}, {"pitch": 67, "start": 12.0, "length": 3.9, "velocity": 80, "probability": 1.0}, {"pitch": 71, "start": 12.0, "length": 3.9, "velocity": 80, "probability": 1.0}], "groove": null, "pattern": "sustained"}], "mix": {"volume_db": -6.0, "pan": -0.3}, "instrument_hint": "warm sustained minor chords with subtle reverb"}, {"id": "t4", "role": "lead", "name": "Lead Synth", "clips": [{"section": "s1", "bars": 4, "notes": [{"pitch": 76, "start": 0.0, "length": 0.8, "velocity": 88, "probability": 1.0}, {"pitch": 79, "start": 1.5, "length": 0.5, "velocity": 88, "probability": 1.0}, {"pitch": 83, "start": 3.0, "length": 0.8, "velocity": 88, "probability": 1.0}, {"pitch": 81, "start": 4.5, "length": 0.5, "velocity": 88, "probability": 1.0}, {"pitch": 78, "start": 6.0, "length": 1.5, "velocity": 88, "probability": 1.0}, {"pitch": 76, "start": 8.0, "length": 0.8, "velocity": 88, "probability": 1.0}, {"pitch": 79, "start": 9.5, "length": 0.5, "velocity": 88, "probability": 1.0}, {"pitch": 83, "start": 11.0, "length": 0.8, "velocity": 88, "probability": 1.0}, {"pitch": 81, "start": 12.5, "length": 0.5, "velocity": 88, "probability": 1.0}, {"pitch": 78, "start": 14.0, "length": 1.5, "velocity": 88, "probability": 1.0}], "groove": null, "pattern": "sparse_melodic"}, {"section": "s2", "bars": 8, "notes": [{"pitch": 76, "start": 0.0, "length": 0.8, "velocity": 88, "probability": 1.0}, {"pitch": 79, "start": 1.5, "length": 0.5, "velocity": 88, "probability": 1.0}, {"pitch": 83, "start": 3.0, "length": 0.8, "velocity": 88, "probability": 1.0}, {"pitch": 81, "start": 4.5, "length": 0.5, "velocity": 88, "probability": 1.0}, {"pitch": 78, "start": 6.0, "length": 1.5, "velocity": 88, "probability": 1.0}, {"pitch": 76, "start": 8.0, "length": 0.8, "velocity": 88, "probability": 1.0}, {"pitch": 79, "start": 9.5, "length": 0.5, "velocity": 88, "probability": 1.0}, {"pitch": 83, "start": 11.0, "length": 0.8, "velocity": 88, "probability": 1.0}, {"pitch": 81, "start": 12.5, "length": 0.5, "velocity": 88, "probability": 1.0}, {"pitch": 78, "start": 14.0, "length": 1.5, "velocity": 88, "probability": 1.0}, {"pitch": 76, "start": 16.0, "length": 0.8, "velocity": 88, "probability": 1.0}, {"pitch": 79, "start": 17.5, "length": 0.5, "velocity": 88, "probability": 1.0}, {"pitch": 83, "start": 19.0, "length": 0.8, "velocity": 88, "probability": 1.0}, {"pitch": 81, "start": 20.5, "length": 0.5, "velocity": 88, "probability": 1.0}, {"pitch": 78, "start": 22.0, "length": 1.5, "velocity": 88, "probability": 1.0}, {"pitch": 76, "start": 24.0, "length": 0.8, "velocity": 88, "probability": 1.0}, {"pitch": 79, "start": 25.5, "length": 0.5, "velocity": 88, "probability": 1.0}, {"pitch": 83, "start": 27.0, "length": 0.8, "velocity": 88, "probability": 1.0}, {"pitch": 81, "start": 28.5, "length": 0.5, "velocity": 88, "probability": 1.0}, {"pitch": 78, "start": 30.0, "length": 1.5, "velocity": 88, "probability": 1.0}], "groove": null, "pattern": "sparse_melodic"}, {"section": "s3", "bars": 4, "notes": [{"pitch": 76, "start": 0.0, "length": 0.2, "velocity": 78, "probability": 1.0}, {"pitch": 79, "start": 0.25, "length": 0.2, "velocity": 78, "probability": 1.0}, {"pitch": 83, "start": 0.5, "length": 0.2, "velocity": 78, "probability": 1.0}, {"pitch": 79, "start": 0.75, "length": 0.2, "velocity": 78, "probability": 1.0}, {"pitch": 76, "start": 1.0, "length": 0.2, "velocity": 78, "probability": 1.0}, {"pitch": 79, "start": 1.25, "length": 0.2, "velocity": 78, "probability": 1.0}, {"pitch": 83, "start": 1.5, "length": 0.2, "velocity": 78, "probability": 1.0}, {"pitch": 79, "start": 1.75, "length": 0.2, "velocity": 78, "probability": 1.0}, {"pitch": 76, "start": 2.0, "length": 0.2, "velocity": 78, "probability": 1.0}, {"pitch": 79, "start": 2.25, "length": 0.2, "velocity": 78, "probability": 1.0}, {"pitch": 83, "start": 2.5, "length": 0.2, "velocity": 78, "probability": 1.0}, {"pitch": 79, "start": 2.75, "length": 0.2, "velocity": 78, "probability": 1.0}, {"pitch": 76, "start": 3.0, "length": 0.2, "velocity": 78, "probability": 1.0}, {"pitch": 79, "start": 3.25, "length": 0.2, "velocity": 78, "probability": 1.0}, {"pitch": 83, "start": 3.5, "length": 0.2, "velocity": 78, "probability": 1.0}, {"pitch": 79, "start": 3.75, "length": 0.2, "velocity": 78, "probability": 1.0}, {"pitch": 76, "start": 4.0, "length": 0.2, "velocity": 78, "probability": 1.0}, {"pitch": 79, "start": 4.25, "length": 0.2, "velocity": 78, "probability": 1.0}, {"pitch": 83, "start": 4.5, "length": 0.2, "velocity": 78, "probability": 1.0}, {"pitch": 79, "start": 4.75, "length": 0.2, "velocity": 78, "probability": 1.0}, {"pitch": 76, "start": 5.0, "length": 0.2, "velocity": 78, "probability": 1.0}, {"pitch": 79, "start": 5.25, "length": 0.2, "velocity": 78, "probability": 1.0}, {"pitch": 83, "start": 5.5, "length": 0.2, "velocity": 78, "probability": 1.0}, {"pitch": 79, "start": 5.75, "length": 0.2, "velocity": 78, "probability": 1.0}, {"pitch": 76, "start": 6.0, "length": 0.2, "velocity": 78, "probability": 1.0}, {"pitch": 79, "start": 6.25, "length": 0.2, "velocity": 78, "probability": 1.0}, {"pitch": 83, "start": 6.5, "length": 0.2, "velocity": 78, "probability": 1.0}, {"pitch": 79, "start": 6.75, "length": 0.2, "velocity": 78, "probability": 1.0}, {"pitch": 76, "start": 7.0, "length": 0.2, "velocity": 78, "probability": 1.0}, {"pitch": 79, "start": 7.25, "length": 0.2, "velocity": 78, "probability": 1.0}, {"pitch": 83, "start": 7.5, "length": 0.2, "velocity": 78, "probability": 1.0}, {"pitch": 79, "start": 7.75, "length": 0.2, "velocity": 78, "probability": 1.0}, {"pitch": 76, "start": 8.0, "length": 0.2, "velocity": 78, "probability": 1.0}, {"pitch": 79, "start": 8.25, "length": 0.2, "velocity": 78, "probability": 1.0}, {"pitch": 83, "start": 8.5, "length": 0.2, "velocity": 78, "probability": 1.0}, {"pitch": 79, "start": 8.75, "length": 0.2, "velocity": 78, "probability": 1.0}, {"pitch": 76, "start": 9.0, "length": 0.2, "velocity": 78, "probability": 1.0}, {"pitch": 79, "start": 9.25, "length": 0.2, "velocity": 78, "probability": 1.0}, {"pitch": 83, "start": 9.5, "length": 0.2, "velocity": 78, "probability": 1.0}, {"pitch": 79, "start": 9.75, "length": 0.2, "velocity": 78, "probability": 1.0}, {"pitch": 76, "start": 10.0, "length": 0.2, "velocity": 78, "probability": 1.0}, {"pitch": 79, "start": 10.25, "length": 0.2, "velocity": 78, "probability": 1.0}, {"pitch": 83, "start": 10.5, "length": 0.2, "velocity": 78, "probability": 1.0}, {"pitch": 79, "start": 10.75, "length": 0.2, "velocity": 78, "probability": 1.0}, {"pitch": 76, "start": 11.0, "length": 0.2, "velocity": 78, "probability": 1.0}, {"pitch": 79, "start": 11.25, "length": 0.2, "velocity": 78, "probability": 1.0}, {"pitch": 83, "start": 11.5, "length": 0.2, "velocity": 78, "probability": 1.0}, {"pitch": 79, "start": 11.75, "length": 0.2, "velocity": 78, "probability": 1.0}, {"pitch": 76, "start": 12.0, "length": 0.2, "velocity": 78, "probability": 1.0}, {"pitch": 79, "start": 12.25, "length": 0.2, "velocity": 78, "probability": 1.0}, {"pitch": 83, "start": 12.5, "length": 0.2, "velocity": 78, "probability": 1.0}, {"pitch": 79, "start": 12.75, "length": 0.2, "velocity": 78, "probability": 1.0}, {"pitch": 76, "start": 13.0, "length": 0.2, "velocity": 78, "probability": 1.0}, {"pitch": 79, "start": 13.25, "length": 0.2, "velocity": 78, "probability": 1.0}, {"pitch": 83, "start": 13.5, "length": 0.2, "velocity": 78, "probability": 1.0}, {"pitch": 79, "start": 13.75, "length": 0.2, "velocity": 78, "probability": 1.0}, {"pitch": 76, "start": 14.0, "length": 0.2, "velocity": 78, "probability": 1.0}, {"pitch": 79, "start": 14.25, "length": 0.2, "velocity": 78, "probability": 1.0}, {"pitch": 83, "start": 14.5, "length": 0.2, "velocity": 78, "probability": 1.0}, {"pitch": 79, "start": 14.75, "length": 0.2, "velocity": 78, "probability": 1.0}, {"pitch": 76, "start": 15.0, "length": 0.2, "velocity": 78, "probability": 1.0}, {"pitch": 79, "start": 15.25, "length": 0.2, "velocity": 78, "probability": 1.0}, {"pitch": 83, "start": 15.5, "length": 0.2, "velocity": 78, "probability": 1.0}, {"pitch": 79, "start": 15.75, "length": 0.2, "velocity": 78, "probability": 1.0}], "groove": null, "pattern": "ostinato_16ths"}, {"section": "s4", "bars": 8, "notes": [{"pitch": 76, "start": 0.0, "length": 0.2, "velocity": 78, "probability": 1.0}, {"pitch": 79, "start": 0.25, "length": 0.2, "velocity": 78, "probability": 1.0}, {"pitch": 83, "start": 0.5, "length": 0.2, "velocity": 78, "probability": 1.0}, {"pitch": 79, "start": 0.75, "length": 0.2, "velocity": 78, "probability": 1.0}, {"pitch": 76, "start": 1.0, "length": 0.2, "velocity": 78, "probability": 1.0}, {"pitch": 79, "start": 1.25, "length": 0.2, "velocity": 78, "probability": 1.0}, {"pitch": 83, "start": 1.5, "length": 0.2, "velocity": 78, "probability": 1.0}, {"pitch": 79, "start": 1.75, "length": 0.2, "velocity": 78, "probability": 1.0}, {"pitch": 76, "start": 2.0, "length": 0.2, "velocity": 78, "probability": 1.0}, {"pitch": 79, "start": 2.25, "length": 0.2, "velocity": 78, "probability": 1.0}, {"pitch": 83, "start": 2.5, "length": 0.2, "velocity": 78, "probability": 1.0}, {"pitch": 79, "start": 2.75, "length": 0.2, "velocity": 78, "probability": 1.0}, {"pitch": 76, "start": 3.0, "length": 0.2, "velocity": 78, "probability": 1.0}, {"pitch": 79, "start": 3.25, "length": 0.2, "velocity": 78, "probability": 1.0}, {"pitch": 83, "start": 3.5, "length": 0.2, "velocity": 78, "probability": 1.0}, {"pitch": 79, "start": 3.75, "length": 0.2, "velocity": 78, "probability": 1.0}, {"pitch": 76, "start": 4.0, "length": 0.2, "velocity": 78, "probability": 1.0}, {"pitch": 79, "start": 4.25, "length": 0.2, "velocity": 78, "probability": 1.0}, {"pitch": 83, "start": 4.5, "length": 0.2, "velocity": 78, "probability": 1.0}, {"pitch": 79, "start": 4.75, "length": 0.2, "velocity": 78, "probability": 1.0}, {"pitch": 76, "start": 5.0, "length": 0.2, "velocity": 78, "probability": 1.0}, {"pitch": 79, "start": 5.25, "length": 0.2, "velocity": 78, "probability": 1.0}, {"pitch": 83, "start": 5.5, "length": 0.2, "velocity": 78, "probability": 1.0}, {"pitch": 79, "start": 5.75, "length": 0.2, "velocity": 78, "probability": 1.0}, {"pitch": 76, "start": 6.0, "length": 0.2, "velocity": 78, "probability": 1.0}, {"pitch": 79, "start": 6.25, "length": 0.2, "velocity": 78, "probability": 1.0}, {"pitch": 83, "start": 6.5, "length": 0.2, "velocity": 78, "probability": 1.0}, {"pitch": 79, "start": 6.75, "length": 0.2, "velocity": 78, "probability": 1.0}, {"pitch": 76, "start": 7.0, "length": 0.2, "velocity": 78, "probability": 1.0}, {"pitch": 79, "start": 7.25, "length": 0.2, "velocity": 78, "probability": 1.0}, {"pitch": 83, "start": 7.5, "length": 0.2, "velocity": 78, "probability": 1.0}, {"pitch": 79, "start": 7.75, "length": 0.2, "velocity": 78, "probability": 1.0}, {"pitch": 76, "start": 8.0, "length": 0.2, "velocity": 78, "probability": 1.0}, {"pitch": 79, "start": 8.25, "length": 0.2, "velocity": 78, "probability": 1.0}, {"pitch": 83, "start": 8.5, "length": 0.2, "velocity": 78, "probability": 1.0}, {"pitch": 79, "start": 8.75, "length": 0.2, "velocity": 78, "probability": 1.0}, {"pitch": 76, "start": 9.0, "length": 0.2, "velocity": 78, "probability": 1.0}, {"pitch": 79, "start": 9.25, "length": 0.2, "velocity": 78, "probability": 1.0}, {"pitch": 83, "start": 9.5, "length": 0.2, "velocity": 78, "probability": 1.0}, {"pitch": 79, "start": 9.75, "length": 0.2, "velocity": 78, "probability": 1.0}, {"pitch": 76, "start": 10.0, "length": 0.2, "velocity": 78, "probability": 1.0}, {"pitch": 79, "start": 10.25, "length": 0.2, "velocity": 78, "probability": 1.0}, {"pitch": 83, "start": 10.5, "length": 0.2, "velocity": 78, "probability": 1.0}, {"pitch": 79, "start": 10.75, "length": 0.2, "velocity": 78, "probability": 1.0}, {"pitch": 76, "start": 11.0, "length": 0.2, "velocity": 78, "probability": 1.0}, {"pitch": 79, "start": 11.25, "length": 0.2, "velocity": 78, "probability": 1.0}, {"pitch": 83, "start": 11.5, "length": 0.2, "velocity": 78, "probability": 1.0}, {"pitch": 79, "start": 11.75, "length": 0.2, "velocity": 78, "probability": 1.0}, {"pitch": 76, "start": 12.0, "length": 0.2, "velocity": 78, "probability": 1.0}, {"pitch": 79, "start": 12.25, "length": 0.2, "velocity": 78, "probability": 1.0}, {"pitch": 83, "start": 12.5, "length": 0.2, "velocity": 78, "probability": 1.0}, {"pitch": 79, "start": 12.75, "length": 0.2, "velocity": 78, "probability": 1.0}, {"pitch": 76, "start": 13.0, "length": 0.2, "velocity": 78, "probability": 1.0}, {"pitch": 79, "start": 13.25, "length": 0.2, "velocity": 78, "probability": 1.0}, {"pitch": 83, "start": 13.5, "length": 0.2, "velocity": 78, "probability": 1.0}, {"pitch": 79, "start": 13.75, "length": 0.2, "velocity": 78, "probability": 1.0}, {"pitch": 76, "start": 14.0, "length": 0.2, "velocity": 78, "probability": 1.0}, {"pitch": 79, "start": 14.25, "length": 0.2, "velocity": 78, "probability": 1.0}, {"pitch": 83, "start": 14.5, "length": 0.2, "velocity": 78, "probability": 1.0}, {"pitch": 79, "start": 14.75, "length": 0.2, "velocity": 78, "probability": 1.0}, {"pitch": 76, "start": 15.0, "length": 0.2, "velocity": 78, "probability": 1.0}, {"pitch": 79, "start": 15.25, "length": 0.2, "velocity": 78, "probability": 1.0}, {"pitch": 83, "start": 15.5, "length": 0.2, "velocity": 78, "probability": 1.0}, {"pitch": 79, "start": 15.75, "length": 0.2, "velocity": 78, "probability": 1.0}, {"pitch": 76, "start": 16.0, "length": 0.2, "velocity": 78, "probability": 1.0}, {"pitch": 79, "start": 16.25, "length": 0.2, "velocity": 78, "probability": 1.0}, {"pitch": 83, "start": 16.5, "length": 0.2, "velocity": 78, "probability": 1.0}, {"pitch": 79, "start": 16.75, "length": 0.2, "velocity": 78, "probability": 1.0}, {"pitch": 76, "start": 17.0, "length": 0.2, "velocity": 78, "probability": 1.0}, {"pitch": 79, "start": 17.25, "length": 0.2, "velocity": 78, "probability": 1.0}, {"pitch": 83, "start": 17.5, "length": 0.2, "velocity": 78, "probability": 1.0}, {"pitch": 79, "start": 17.75, "length": 0.2, "velocity": 78, "probability": 1.0}, {"pitch": 76, "start": 18.0, "length": 0.2, "velocity": 78, "probability": 1.0}, {"pitch": 79, "start": 18.25, "length": 0.2, "velocity": 78, "probability": 1.0}, {"pitch": 83, "start": 18.5, "length": 0.2, "velocity": 78, "probability": 1.0}, {"pitch": 79, "start": 18.75, "length": 0.2, "velocity": 78, "probability": 1.0}, {"pitch": 76, "start": 19.0, "length": 0.2, "velocity": 78, "probability": 1.0}, {"pitch": 79, "start": 19.25, "length": 0.2, "velocity": 78, "probability": 1.0}, {"pitch": 83, "start": 19.5, "length": 0.2, "velocity": 78, "probability": 1.0}, {"pitch": 79, "start": 19.75, "length": 0.2, "velocity": 78, "probability": 1.0}, {"pitch": 76, "start": 20.0, "length": 0.2, "velocity": 78, "probability": 1.0}, {"pitch": 79, "start": 20.25, "length": 0.2, "velocity": 78, "probability": 1.0}, {"pitch": 83, "start": 20.5, "length": 0.2, "velocity": 78, "probability": 1.0}, {"pitch": 79, "start": 20.75, "length": 0.2, "velocity": 78, "probability": 1.0}, {"pitch": 76, "start": 21.0, "length": 0.2, "velocity": 78, "probability": 1.0}, {"pitch": 79, "start": 21.25, "length": 0.2, "velocity": 78, "probability": 1.0}, {"pitch": 83, "start": 21.5, "length": 0.2, "velocity": 78, "probability": 1.0}, {"pitch": 79, "start": 21.75, "length": 0.2, "velocity": 78, "probability": 1.0}, {"pitch": 76, "start": 22.0, "length": 0.2, "velocity": 78, "probability": 1.0}, {"pitch": 79, "start": 22.25, "length": 0.2, "velocity": 78, "probability": 1.0}, {"pitch": 83, "start": 22.5, "length": 0.2, "velocity": 78, "probability": 1.0}, {"pitch": 79, "start": 22.75, "length": 0.2, "velocity": 78, "probability": 1.0}, {"pitch": 76, "start": 23.0, "length": 0.2, "velocity": 78, "probability": 1.0}, {"pitch": 79, "start": 23.25, "length": 0.2, "velocity": 78, "probability": 1.0}, {"pitch": 83, "start": 23.5, "length": 0.2, "velocity": 78, "probability": 1.0}, {"pitch": 79, "start": 23.75, "length": 0.2, "velocity": 78, "probability": 1.0}, {"pitch": 76, "start": 24.0, "length": 0.2, "velocity": 78, "probability": 1.0}, {"pitch": 79, "start": 24.25, "length": 0.2, "velocity": 78, "probability": 1.0}, {"pitch": 83, "start": 24.5, "length": 0.2, "velocity": 78, "probability": 1.0}, {"pitch": 79, "start": 24.75, "length": 0.2, "velocity": 78, "probability": 1.0}, {"pitch": 76, "start": 25.0, "length": 0.2, "velocity": 78, "probability": 1.0}, {"pitch": 79, "start": 25.25, "length": 0.2, "velocity": 78, "probability": 1.0}, {"pitch": 83, "start": 25.5, "length": 0.2, "velocity": 78, "probability": 1.0}, {"pitch": 79, "start": 25.75, "length": 0.2, "velocity": 78, "probability": 1.0}, {"pitch": 76, "start": 26.0, "length": 0.2, "velocity": 78, "probability": 1.0}, {"pitch": 79, "start": 26.25, "length": 0.2, "velocity": 78, "probability": 1.0}, {"pitch": 83, "start": 26.5, "length": 0.2, "velocity": 78, "probability": 1.0}, {"pitch": 79, "start": 26.75, "length": 0.2, "velocity": 78, "probability": 1.0}, {"pitch": 76, "start": 27.0, "length": 0.2, "velocity": 78, "probability": 1.0}, {"pitch": 79, "start": 27.25, "length": 0.2, "velocity": 78, "probability": 1.0}, {"pitch": 83, "start": 27.5, "length": 0.2, "velocity": 78, "probability": 1.0}, {"pitch": 79, "start": 27.75, "length": 0.2, "velocity": 78, "probability": 1.0}, {"pitch": 76, "start": 28.0, "length": 0.2, "velocity": 78, "probability": 1.0}, {"pitch": 79, "start": 28.25, "length": 0.2, "velocity": 78, "probability": 1.0}, {"pitch": 83, "start": 28.5, "length": 0.2, "velocity": 78, "probability": 1.0}, {"pitch": 79, "start": 28.75, "length": 0.2, "velocity": 78, "probability": 1.0}, {"pitch": 76, "start": 29.0, "length": 0.2, "velocity": 78, "probability": 1.0}, {"pitch": 79, "start": 29.25, "length": 0.2, "velocity": 78, "probability": 1.0}, {"pitch": 83, "start": 29.5, "length": 0.2, "velocity": 78, "probability": 1.0}, {"pitch": 79, "start": 29.75, "length": 0.2, "velocity": 78, "probability": 1.0}, {"pitch": 76, "start": 30.0, "length": 0.2, "velocity": 78, "probability": 1.0}, {"pitch": 79, "start": 30.25, "length": 0.2, "velocity": 78, "probability": 1.0}, {"pitch": 83, "start": 30.5, "length": 0.2, "velocity": 78, "probability": 1.0}, {"pitch": 79, "start": 30.75, "length": 0.2, "velocity": 78, "probability": 1.0}, {"pitch": 76, "start": 31.0, "length": 0.2, "velocity": 78, "probability": 1.0}, {"pitch": 79, "start": 31.25, "length": 0.2, "velocity": 78, "probability": 1.0}, {"pitch": 83, "start": 31.5, "length": 0.2, "velocity": 78, "probability": 1.0}, {"pitch": 79, "start": 31.75, "length": 0.2, "velocity": 78, "probability": 1.0}], "groove": null, "pattern": "ostinato_16ths"}, {"section": "s5", "bars": 8, "notes": [{"pitch": 76, "start": 0.0, "length": 0.8, "velocity": 88, "probability": 1.0}, {"pitch": 79, "start": 1.5, "length": 0.5, "velocity": 88, "probability": 1.0}, {"pitch": 83, "start": 3.0, "length": 0.8, "velocity": 88, "probability": 1.0}, {"pitch": 81, "start": 4.5, "length": 0.5, "velocity": 88, "probability": 1.0}, {"pitch": 78, "start": 6.0, "length": 1.5, "velocity": 88, "probability": 1.0}, {"pitch": 76, "start": 8.0, "length": 0.8, "velocity": 88, "probability": 1.0}, {"pitch": 79, "start": 9.5, "length": 0.5, "velocity": 88, "probability": 1.0}, {"pitch": 83, "start": 11.0, "length": 0.8, "velocity": 88, "probability": 1.0}, {"pitch": 81, "start": 12.5, "length": 0.5, "velocity": 88, "probability": 1.0}, {"pitch": 78, "start": 14.0, "length": 1.5, "velocity": 88, "probability": 1.0}, {"pitch": 76, "start": 16.0, "length": 0.8, "velocity": 88, "probability": 1.0}, {"pitch": 79, "start": 17.5, "length": 0.5, "velocity": 88, "probability": 1.0}, {"pitch": 83, "start": 19.0, "length": 0.8, "velocity": 88, "probability": 1.0}, {"pitch": 81, "start": 20.5, "length": 0.5, "velocity": 88, "probability": 1.0}, {"pitch": 78, "start": 22.0, "length": 1.5, "velocity": 88, "probability": 1.0}, {"pitch": 76, "start": 24.0, "length": 0.8, "velocity": 88, "probability": 1.0}, {"pitch": 79, "start": 25.5, "length": 0.5, "velocity": 88, "probability": 1.0}, {"pitch": 83, "start": 27.0, "length": 0.8, "velocity": 88, "probability": 1.0}, {"pitch": 81, "start": 28.5, "length": 0.5, "velocity": 88, "probability": 1.0}, {"pitch": 78, "start": 30.0, "length": 1.5, "velocity": 88, "probability": 1.0}], "groove": null, "pattern": "sparse_melodic"}, {"section": "s6", "bars": 4, "notes": [{"pitch": 76, "start": 0.0, "length": 0.2, "velocity": 78, "probability": 1.0}, {"pitch": 79, "start": 0.25, "length": 0.2, "velocity": 78, "probability": 1.0}, {"pitch": 83, "start": 0.5, "length": 0.2, "velocity": 78, "probability": 1.0}, {"pitch": 79, "start": 0.75, "length": 0.2, "velocity": 78, "probability": 1.0}, {"pitch": 76, "start": 1.0, "length": 0.2, "velocity": 78, "probability": 1.0}, {"pitch": 79, "start": 1.25, "length": 0.2, "velocity": 78, "probability": 1.0}, {"pitch": 83, "start": 1.5, "length": 0.2, "velocity": 78, "probability": 1.0}, {"pitch": 79, "start": 1.75, "length": 0.2, "velocity": 78, "probability": 1.0}, {"pitch": 76, "start": 2.0, "length": 0.2, "velocity": 78, "probability": 1.0}, {"pitch": 79, "start": 2.25, "length": 0.2, "velocity": 78, "probability": 1.0}, {"pitch": 83, "start": 2.5, "length": 0.2, "velocity": 78, "probability": 1.0}, {"pitch": 79, "start": 2.75, "length": 0.2, "velocity": 78, "probability": 1.0}, {"pitch": 76, "start": 3.0, "length": 0.2, "velocity": 78, "probability": 1.0}, {"pitch": 79, "start": 3.25, "length": 0.2, "velocity": 78, "probability": 1.0}, {"pitch": 83, "start": 3.5, "length": 0.2, "velocity": 78, "probability": 1.0}, {"pitch": 79, "start": 3.75, "length": 0.2, "velocity": 78, "probability": 1.0}, {"pitch": 76, "start": 4.0, "length": 0.2, "velocity": 78, "probability": 1.0}, {"pitch": 79, "start": 4.25, "length": 0.2, "velocity": 78, "probability": 1.0}, {"pitch": 83, "start": 4.5, "length": 0.2, "velocity": 78, "probability": 1.0}, {"pitch": 79, "start": 4.75, "length": 0.2, "velocity": 78, "probability": 1.0}, {"pitch": 76, "start": 5.0, "length": 0.2, "velocity": 78, "probability": 1.0}, {"pitch": 79, "start": 5.25, "length": 0.2, "velocity": 78, "probability": 1.0}, {"pitch": 83, "start": 5.5, "length": 0.2, "velocity": 78, "probability": 1.0}, {"pitch": 79, "start": 5.75, "length": 0.2, "velocity": 78, "probability": 1.0}, {"pitch": 76, "start": 6.0, "length": 0.2, "velocity": 78, "probability": 1.0}, {"pitch": 79, "start": 6.25, "length": 0.2, "velocity": 78, "probability": 1.0}, {"pitch": 83, "start": 6.5, "length": 0.2, "velocity": 78, "probability": 1.0}, {"pitch": 79, "start": 6.75, "length": 0.2, "velocity": 78, "probability": 1.0}, {"pitch": 76, "start": 7.0, "length": 0.2, "velocity": 78, "probability": 1.0}, {"pitch": 79, "start": 7.25, "length": 0.2, "velocity": 78, "probability": 1.0}, {"pitch": 83, "start": 7.5, "length": 0.2, "velocity": 78, "probability": 1.0}, {"pitch": 79, "start": 7.75, "length": 0.2, "velocity": 78, "probability": 1.0}, {"pitch": 76, "start": 8.0, "length": 0.2, "velocity": 78, "probability": 1.0}, {"pitch": 79, "start": 8.25, "length": 0.2, "velocity": 78, "probability": 1.0}, {"pitch": 83, "start": 8.5, "length": 0.2, "velocity": 78, "probability": 1.0}, {"pitch": 79, "start": 8.75, "length": 0.2, "velocity": 78, "probability": 1.0}, {"pitch": 76, "start": 9.0, "length": 0.2, "velocity": 78, "probability": 1.0}, {"pitch": 79, "start": 9.25, "length": 0.2, "velocity": 78, "probability": 1.0}, {"pitch": 83, "start": 9.5, "length": 0.2, "velocity": 78, "probability": 1.0}, {"pitch": 79, "start": 9.75, "length": 0.2, "velocity": 78, "probability": 1.0}, {"pitch": 76, "start": 10.0, "length": 0.2, "velocity": 78, "probability": 1.0}, {"pitch": 79, "start": 10.25, "length": 0.2, "velocity": 78, "probability": 1.0}, {"pitch": 83, "start": 10.5, "length": 0.2, "velocity": 78, "probability": 1.0}, {"pitch": 79, "start": 10.75, "length": 0.2, "velocity": 78, "probability": 1.0}, {"pitch": 76, "start": 11.0, "length": 0.2, "velocity": 78, "probability": 1.0}, {"pitch": 79, "start": 11.25, "length": 0.2, "velocity": 78, "probability": 1.0}, {"pitch": 83, "start": 11.5, "length": 0.2, "velocity": 78, "probability": 1.0}, {"pitch": 79, "start": 11.75, "length": 0.2, "velocity": 78, "probability": 1.0}, {"pitch": 76, "start": 12.0, "length": 0.2, "velocity": 78, "probability": 1.0}, {"pitch": 79, "start": 12.25, "length": 0.2, "velocity": 78, "probability": 1.0}, {"pitch": 83, "start": 12.5, "length": 0.2, "velocity": 78, "probability": 1.0}, {"pitch": 79, "start": 12.75, "length": 0.2, "velocity": 78, "probability": 1.0}, {"pitch": 76, "start": 13.0, "length": 0.2, "velocity": 78, "probability": 1.0}, {"pitch": 79, "start": 13.25, "length": 0.2, "velocity": 78, "probability": 1.0}, {"pitch": 83, "start": 13.5, "length": 0.2, "velocity": 78, "probability": 1.0}, {"pitch": 79, "start": 13.75, "length": 0.2, "velocity": 78, "probability": 1.0}, {"pitch": 76, "start": 14.0, "length": 0.2, "velocity": 78, "probability": 1.0}, {"pitch": 79, "start": 14.25, "length": 0.2, "velocity": 78, "probability": 1.0}, {"pitch": 83, "start": 14.5, "length": 0.2, "velocity": 78, "probability": 1.0}, {"pitch": 79, "start": 14.75, "length": 0.2, "velocity": 78, "probability": 1.0}, {"pitch": 76, "start": 15.0, "length": 0.2, "velocity": 78, "probability": 1.0}, {"pitch": 79, "start": 15.25, "length": 0.2, "velocity": 78, "probability": 1.0}, {"pitch": 83, "start": 15.5, "length": 0.2, "velocity": 78, "probability": 1.0}, {"pitch": 79, "start": 15.75, "length": 0.2, "velocity": 78, "probability": 1.0}], "groove": null, "pattern": "ostinato_16ths"}, {"section": "s7", "bars": 8, "notes": [{"pitch": 76, "start": 0.0, "length": 0.2, "velocity": 78, "probability": 1.0}, {"pitch": 79, "start": 0.25, "length": 0.2, "velocity": 78, "probability": 1.0}, {"pitch": 83, "start": 0.5, "length": 0.2, "velocity": 78, "probability": 1.0}, {"pitch": 79, "start": 0.75, "length": 0.2, "velocity": 78, "probability": 1.0}, {"pitch": 76, "start": 1.0, "length": 0.2, "velocity": 78, "probability": 1.0}, {"pitch": 79, "start": 1.25, "length": 0.2, "velocity": 78, "probability": 1.0}, {"pitch": 83, "start": 1.5, "length": 0.2, "velocity": 78, "probability": 1.0}, {"pitch": 79, "start": 1.75, "length": 0.2, "velocity": 78, "probability": 1.0}, {"pitch": 76, "start": 2.0, "length": 0.2, "velocity": 78, "probability": 1.0}, {"pitch": 79, "start": 2.25, "length": 0.2, "velocity": 78, "probability": 1.0}, {"pitch": 83, "start": 2.5, "length": 0.2, "velocity": 78, "probability": 1.0}, {"pitch": 79, "start": 2.75, "length": 0.2, "velocity": 78, "probability": 1.0}, {"pitch": 76, "start": 3.0, "length": 0.2, "velocity": 78, "probability": 1.0}, {"pitch": 79, "start": 3.25, "length": 0.2, "velocity": 78, "probability": 1.0}, {"pitch": 83, "start": 3.5, "length": 0.2, "velocity": 78, "probability": 1.0}, {"pitch": 79, "start": 3.75, "length": 0.2, "velocity": 78, "probability": 1.0}, {"pitch": 76, "start": 4.0, "length": 0.2, "velocity": 78, "probability": 1.0}, {"pitch": 79, "start": 4.25, "length": 0.2, "velocity": 78, "probability": 1.0}, {"pitch": 83, "start": 4.5, "length": 0.2, "velocity": 78, "probability": 1.0}, {"pitch": 79, "start": 4.75, "length": 0.2, "velocity": 78, "probability": 1.0}, {"pitch": 76, "start": 5.0, "length": 0.2, "velocity": 78, "probability": 1.0}, {"pitch": 79, "start": 5.25, "length": 0.2, "velocity": 78, "probability": 1.0}, {"pitch": 83, "start": 5.5, "length": 0.2, "velocity": 78, "probability": 1.0}, {"pitch": 79, "start": 5.75, "length": 0.2, "velocity": 78, "probability": 1.0}, {"pitch": 76, "start": 6.0, "length": 0.2, "velocity": 78, "probability": 1.0}, {"pitch": 79, "start": 6.25, "length": 0.2, "velocity": 78, "probability": 1.0}, {"pitch": 83, "start": 6.5, "length": 0.2, "velocity": 78, "probability": 1.0}, {"pitch": 79, "start": 6.75, "length": 0.2, "velocity": 78, "probability": 1.0}, {"pitch": 76, "start": 7.0, "length": 0.2, "velocity": 78, "probability": 1.0}, {"pitch": 79, "start": 7.25, "length": 0.2, "velocity": 78, "probability": 1.0}, {"pitch": 83, "start": 7.5, "length": 0.2, "velocity": 78, "probability": 1.0}, {"pitch": 79, "start": 7.75, "length": 0.2, "velocity": 78, "probability": 1.0}, {"pitch": 76, "start": 8.0, "length": 0.2, "velocity": 78, "probability": 1.0}, {"pitch": 79, "start": 8.25, "length": 0.2, "velocity": 78, "probability": 1.0}, {"pitch": 83, "start": 8.5, "length": 0.2, "velocity": 78, "probability": 1.0}, {"pitch": 79, "start": 8.75, "length": 0.2, "velocity": 78, "probability": 1.0}, {"pitch": 76, "start": 9.0, "length": 0.2, "velocity": 78, "probability": 1.0}, {"pitch": 79, "start": 9.25, "length": 0.2, "velocity": 78, "probability": 1.0}, {"pitch": 83, "start": 9.5, "length": 0.2, "velocity": 78, "probability": 1.0}, {"pitch": 79, "start": 9.75, "length": 0.2, "velocity": 78, "probability": 1.0}, {"pitch": 76, "start": 10.0, "length": 0.2, "velocity": 78, "probability": 1.0}, {"pitch": 79, "start": 10.25, "length": 0.2, "velocity": 78, "probability": 1.0}, {"pitch": 83, "start": 10.5, "length": 0.2, "velocity": 78, "probability": 1.0}, {"pitch": 79, "start": 10.75, "length": 0.2, "velocity": 78, "probability": 1.0}, {"pitch": 76, "start": 11.0, "length": 0.2, "velocity": 78, "probability": 1.0}, {"pitch": 79, "start": 11.25, "length": 0.2, "velocity": 78, "probability": 1.0}, {"pitch": 83, "start": 11.5, "length": 0.2, "velocity": 78, "probability": 1.0}, {"pitch": 79, "start": 11.75, "length": 0.2, "velocity": 78, "probability": 1.0}, {"pitch": 76, "start": 12.0, "length": 0.2, "velocity": 78, "probability": 1.0}, {"pitch": 79, "start": 12.25, "length": 0.2, "velocity": 78, "probability": 1.0}, {"pitch": 83, "start": 12.5, "length": 0.2, "velocity": 78, "probability": 1.0}, {"pitch": 79, "start": 12.75, "length": 0.2, "velocity": 78, "probability": 1.0}, {"pitch": 76, "start": 13.0, "length": 0.2, "velocity": 78, "probability": 1.0}, {"pitch": 79, "start": 13.25, "length": 0.2, "velocity": 78, "probability": 1.0}, {"pitch": 83, "start": 13.5, "length": 0.2, "velocity": 78, "probability": 1.0}, {"pitch": 79, "start": 13.75, "length": 0.2, "velocity": 78, "probability": 1.0}, {"pitch": 76, "start": 14.0, "length": 0.2, "velocity": 78, "probability": 1.0}, {"pitch": 79, "start": 14.25, "length": 0.2, "velocity": 78, "probability": 1.0}, {"pitch": 83, "start": 14.5, "length": 0.2, "velocity": 78, "probability": 1.0}, {"pitch": 79, "start": 14.75, "length": 0.2, "velocity": 78, "probability": 1.0}, {"pitch": 76, "start": 15.0, "length": 0.2, "velocity": 78, "probability": 1.0}, {"pitch": 79, "start": 15.25, "length": 0.2, "velocity": 78, "probability": 1.0}, {"pitch": 83, "start": 15.5, "length": 0.2, "velocity": 78, "probability": 1.0}, {"pitch": 79, "start": 15.75, "length": 0.2, "velocity": 78, "probability": 1.0}, {"pitch": 76, "start": 16.0, "length": 0.2, "velocity": 78, "probability": 1.0}, {"pitch": 79, "start": 16.25, "length": 0.2, "velocity": 78, "probability": 1.0}, {"pitch": 83, "start": 16.5, "length": 0.2, "velocity": 78, "probability": 1.0}, {"pitch": 79, "start": 16.75, "length": 0.2, "velocity": 78, "probability": 1.0}, {"pitch": 76, "start": 17.0, "length": 0.2, "velocity": 78, "probability": 1.0}, {"pitch": 79, "start": 17.25, "length": 0.2, "velocity": 78, "probability": 1.0}, {"pitch": 83, "start": 17.5, "length": 0.2, "velocity": 78, "probability": 1.0}, {"pitch": 79, "start": 17.75, "length": 0.2, "velocity": 78, "probability": 1.0}, {"pitch": 76, "start": 18.0, "length": 0.2, "velocity": 78, "probability": 1.0}, {"pitch": 79, "start": 18.25, "length": 0.2, "velocity": 78, "probability": 1.0}, {"pitch": 83, "start": 18.5, "length": 0.2, "velocity": 78, "probability": 1.0}, {"pitch": 79, "start": 18.75, "length": 0.2, "velocity": 78, "probability": 1.0}, {"pitch": 76, "start": 19.0, "length": 0.2, "velocity": 78, "probability": 1.0}, {"pitch": 79, "start": 19.25, "length": 0.2, "velocity": 78, "probability": 1.0}, {"pitch": 83, "start": 19.5, "length": 0.2, "velocity": 78, "probability": 1.0}, {"pitch": 79, "start": 19.75, "length": 0.2, "velocity": 78, "probability": 1.0}, {"pitch": 76, "start": 20.0, "length": 0.2, "velocity": 78, "probability": 1.0}, {"pitch": 79, "start": 20.25, "length": 0.2, "velocity": 78, "probability": 1.0}, {"pitch": 83, "start": 20.5, "length": 0.2, "velocity": 78, "probability": 1.0}, {"pitch": 79, "start": 20.75, "length": 0.2, "velocity": 78, "probability": 1.0}, {"pitch": 76, "start": 21.0, "length": 0.2, "velocity": 78, "probability": 1.0}, {"pitch": 79, "start": 21.25, "length": 0.2, "velocity": 78, "probability": 1.0}, {"pitch": 83, "start": 21.5, "length": 0.2, "velocity": 78, "probability": 1.0}, {"pitch": 79, "start": 21.75, "length": 0.2, "velocity": 78, "probability": 1.0}, {"pitch": 76, "start": 22.0, "length": 0.2, "velocity": 78, "probability": 1.0}, {"pitch": 79, "start": 22.25, "length": 0.2, "velocity": 78, "probability": 1.0}, {"pitch": 83, "start": 22.5, "length": 0.2, "velocity": 78, "probability": 1.0}, {"pitch": 79, "start": 22.75, "length": 0.2, "velocity": 78, "probability": 1.0}, {"pitch": 76, "start": 23.0, "length": 0.2, "velocity": 78, "probability": 1.0}, {"pitch": 79, "start": 23.25, "length": 0.2, "velocity": 78, "probability": 1.0}, {"pitch": 83, "start": 23.5, "length": 0.2, "velocity": 78, "probability": 1.0}, {"pitch": 79, "start": 23.75, "length": 0.2, "velocity": 78, "probability": 1.0}, {"pitch": 76, "start": 24.0, "length": 0.2, "velocity": 78, "probability": 1.0}, {"pitch": 79, "start": 24.25, "length": 0.2, "velocity": 78, "probability": 1.0}, {"pitch": 83, "start": 24.5, "length": 0.2, "velocity": 78, "probability": 1.0}, {"pitch": 79, "start": 24.75, "length": 0.2, "velocity": 78, "probability": 1.0}, {"pitch": 76, "start": 25.0, "length": 0.2, "velocity": 78, "probability": 1.0}, {"pitch": 79, "start": 25.25, "length": 0.2, "velocity": 78, "probability": 1.0}, {"pitch": 83, "start": 25.5, "length": 0.2, "velocity": 78, "probability": 1.0}, {"pitch": 79, "start": 25.75, "length": 0.2, "velocity": 78, "probability": 1.0}, {"pitch": 76, "start": 26.0, "length": 0.2, "velocity": 78, "probability": 1.0}, {"pitch": 79, "start": 26.25, "length": 0.2, "velocity": 78, "probability": 1.0}, {"pitch": 83, "start": 26.5, "length": 0.2, "velocity": 78, "probability": 1.0}, {"pitch": 79, "start": 26.75, "length": 0.2, "velocity": 78, "probability": 1.0}, {"pitch": 76, "start": 27.0, "length": 0.2, "velocity": 78, "probability": 1.0}, {"pitch": 79, "start": 27.25, "length": 0.2, "velocity": 78, "probability": 1.0}, {"pitch": 83, "start": 27.5, "length": 0.2, "velocity": 78, "probability": 1.0}, {"pitch": 79, "start": 27.75, "length": 0.2, "velocity": 78, "probability": 1.0}, {"pitch": 76, "start": 28.0, "length": 0.2, "velocity": 78, "probability": 1.0}, {"pitch": 79, "start": 28.25, "length": 0.2, "velocity": 78, "probability": 1.0}, {"pitch": 83, "start": 28.5, "length": 0.2, "velocity": 78, "probability": 1.0}, {"pitch": 79, "start": 28.75, "length": 0.2, "velocity": 78, "probability": 1.0}, {"pitch": 76, "start": 29.0, "length": 0.2, "velocity": 78, "probability": 1.0}, {"pitch": 79, "start": 29.25, "length": 0.2, "velocity": 78, "probability": 1.0}, {"pitch": 83, "start": 29.5, "length": 0.2, "velocity": 78, "probability": 1.0}, {"pitch": 79, "start": 29.75, "length": 0.2, "velocity": 78, "probability": 1.0}, {"pitch": 76, "start": 30.0, "length": 0.2, "velocity": 78, "probability": 1.0}, {"pitch": 79, "start": 30.25, "length": 0.2, "velocity": 78, "probability": 1.0}, {"pitch": 83, "start": 30.5, "length": 0.2, "velocity": 78, "probability": 1.0}, {"pitch": 79, "start": 30.75, "length": 0.2, "velocity": 78, "probability": 1.0}, {"pitch": 76, "start": 31.0, "length": 0.2, "velocity": 78, "probability": 1.0}, {"pitch": 79, "start": 31.25, "length": 0.2, "velocity": 78, "probability": 1.0}, {"pitch": 83, "start": 31.5, "length": 0.2, "velocity": 78, "probability": 1.0}, {"pitch": 79, "start": 31.75, "length": 0.2, "velocity": 78, "probability": 1.0}], "groove": null, "pattern": "ostinato_16ths"}, {"section": "s8", "bars": 4, "notes": [{"pitch": 76, "start": 0.0, "length": 0.8, "velocity": 88, "probability": 1.0}, {"pitch": 79, "start": 1.5, "length": 0.5, "velocity": 88, "probability": 1.0}, {"pitch": 83, "start": 3.0, "length": 0.8, "velocity": 88, "probability": 1.0}, {"pitch": 81, "start": 4.5, "length": 0.5, "velocity": 88, "probability": 1.0}, {"pitch": 78, "start": 6.0, "length": 1.5, "velocity": 88, "probability": 1.0}, {"pitch": 76, "start": 8.0, "length": 0.8, "velocity": 88, "probability": 1.0}, {"pitch": 79, "start": 9.5, "length": 0.5, "velocity": 88, "probability": 1.0}, {"pitch": 83, "start": 11.0, "length": 0.8, "velocity": 88, "probability": 1.0}, {"pitch": 81, "start": 12.5, "length": 0.5, "velocity": 88, "probability": 1.0}, {"pitch": 78, "start": 14.0, "length": 1.5, "velocity": 88, "probability": 1.0}], "groove": null, "pattern": "sparse_melodic"}], "mix": {"volume_db": -4.0, "pan": 0.2}, "instrument_hint": "sparse melodic synth lines with delay effects"}, {"id": "t5", "role": "pad", "name": "Wide Ambient Pad", "clips": [{"section": "s1", "bars": 4, "notes": [{"pitch": 64, "start": 0.0, "length": 8.0, "velocity": 68, "probability": 1.0}, {"pitch": 67, "start": 0.0, "length": 8.0, "velocity": 68, "probability": 1.0}, {"pitch": 71, "start": 0.0, "length": 8.0, "velocity": 68, "probability": 1.0}, {"pitch": 83, "start": 0.0, "length": 8.0, "velocity": 68, "probability": 1.0}, {"pitch": 69, "start": 8.0, "length": 8.0, "velocity": 68, "probability": 1.0}, {"pitch": 72, "start": 8.0, "length": 8.0, "velocity": 68, "probability": 1.0}, {"pitch": 76, "start": 8.0, "length": 8.0, "velocity": 68, "probability": 1.0}, {"pitch": 88, "start": 8.0, "length": 8.0, "velocity": 68, "probability": 1.0}], "groove": null, "pattern": "sustained_wide"}, {"section": "s2", "bars": 8, "notes": [{"pitch": 64, "start": 0.0, "length": 8.0, "velocity": 68, "probability": 1.0}, {"pitch": 67, "start": 0.0, "length": 8.0, "velocity": 68, "probability": 1.0}, {"pitch": 71, "start": 0.0, "length": 8.0, "velocity": 68, "probability": 1.0}, {"pitch": 83, "start": 0.0, "length": 8.0, "velocity": 68, "probability": 1.0}, {"pitch": 69, "start": 8.0, "length": 8.0, "velocity": 68, "probability": 1.0}, {"pitch": 72, "start": 8.0, "length": 8.0, "velocity": 68, "probability": 1.0}, {"pitch": 76, "start": 8.0, "length": 8.0, "velocity": 68, "probability": 1.0}, {"pitch": 88, "start": 8.0, "length": 8.0, "velocity": 68, "probability": 1.0}, {"pitch": 71, "start": 16.0, "length": 8.0, "velocity": 68, "probability": 1.0}, {"pitch": 74, "start": 16.0, "length": 8.0, "velocity": 68, "probability": 1.0}, {"pitch": 78, "start": 16.0, "length": 8.0, "velocity": 68, "probability": 1.0}, {"pitch": 90, "start": 16.0, "length": 8.0, "velocity": 68, "probability": 1.0}, {"pitch": 64, "start": 24.0, "length": 8.0, "velocity": 68, "probability": 1.0}, {"pitch": 67, "start": 24.0, "length": 8.0, "velocity": 68, "probability": 1.0}, {"pitch": 71, "start": 24.0, "length": 8.0, "velocity": 68, "probability": 1.0}, {"pitch": 83, "start": 24.0, "length": 8.0, "velocity": 68, "probability": 1.0}], "groove": null, "pattern": "sustained_wide"}, {"section": "s3", "bars": 4, "notes": [{"pitch": 64, "start": 0.0, "length": 8.0, "velocity": 68, "probability": 1.0}, {"pitch": 67, "start": 0.0, "length": 8.0, "velocity": 68, "probability": 1.0}, {"pitch": 71, "start": 0.0, "length": 8.0, "velocity": 68, "probability": 1.0}, {"pitch": 83, "start": 0.0, "length": 8.0, "velocity": 68, "probability": 1.0}, {"pitch": 69, "start": 8.0, "length": 8.0, "velocity": 68, "probability": 1.0}, {"pitch": 72, "start": 8.0, "length": 8.0, "velocity": 68, "probability": 1.0}, {"pitch": 76, "start": 8.0, "length": 8.0, "velocity": 68, "probability": 1.0}, {"pitch": 88, "start": 8.0, "length": 8.0, "velocity": 68, "probability": 1.0}], "groove": null, "pattern": "sustained_wide"}, {"section": "s4", "bars": 8, "notes": [{"pitch": 64, "start": 0.0, "length": 8.0, "velocity": 68, "probability": 1.0}, {"pitch": 67, "start": 0.0, "length": 8.0, "velocity": 68, "probability": 1.0}, {"pitch": 71, "start": 0.0, "length": 8.0, "velocity": 68, "probability": 1.0}, {"pitch": 83, "start": 0.0, "length": 8.0, "velocity": 68, "probability": 1.0}, {"pitch": 69, "start": 8.0, "length": 8.0, "velocity": 68, "probability": 1.0}, {"pitch": 72, "start": 8.0, "length": 8.0, "velocity": 68, "probability": 1.0}, {"pitch": 76, "start": 8.0, "length": 8.0, "velocity": 68, "probability": 1.0}, {"pitch": 88, "start": 8.0, "length": 8.0, "velocity": 68, "probability": 1.0}, {"pitch": 71, "start": 16.0, "length": 8.0, "velocity": 68, "probability": 1.0}, {"pitch": 74, "start": 16.0, "length": 8.0, "velocity": 68, "probability": 1.0}, {"pitch": 78, "start": 16.0, "length": 8.0, "velocity": 68, "probability": 1.0}, {"pitch": 90, "start": 16.0, "length": 8.0, "velocity": 68, "probability": 1.0}, {"pitch": 64, "start": 24.0, "length": 8.0, "velocity": 68, "probability": 1.0}, {"pitch": 67, "start": 24.0, "length": 8.0, "velocity": 68, "probability": 1.0}, {"pitch": 71, "start": 24.0, "length": 8.0, "velocity": 68, "probability": 1.0}, {"pitch": 83, "start": 24.0, "length": 8.0, "velocity": 68, "probability": 1.0}], "groove": null, "pattern": "sustained_wide"}, {"section": "s5", "bars": 8, "notes": [{"pitch": 64, "start": 0.0, "length": 8.0, "velocity": 68, "probability": 1.0}, {"pitch": 67, "start": 0.0, "length": 8.0, "velocity": 68, "probability": 1.0}, {"pitch": 71, "start": 0.0, "length": 8.0, "velocity": 68, "probability": 1.0}, {"pitch": 83, "start": 0.0, "length": 8.0, "velocity": 68, "probability": 1.0}, {"pitch": 69, "start": 8.0, "length": 8.0, "velocity": 68, "probability": 1.0}, {"pitch": 72, "start": 8.0, "length": 8.0, "velocity": 68, "probability": 1.0}, {"pitch": 76, "start": 8.0, "length": 8.0, "velocity": 68, "probability": 1.0}, {"pitch": 88, "start": 8.0, "length": 8.0, "velocity": 68, "probability": 1.0}, {"pitch": 71, "start": 16.0, "length": 8.0, "velocity": 68, "probability": 1.0}, {"pitch": 74, "start": 16.0, "length": 8.0, "velocity": 68, "probability": 1.0}, {"pitch": 78, "start": 16.0, "length": 8.0, "velocity": 68, "probability": 1.0}, {"pitch": 90, "start": 16.0, "length": 8.0, "velocity": 68, "probability": 1.0}, {"pitch": 64, "start": 24.0, "length": 8.0, "velocity": 68, "probability": 1.0}, {"pitch": 67, "start": 24.0, "length": 8.0, "velocity": 68, "probability": 1.0}, {"pitch": 71, "start": 24.0, "length": 8.0, "velocity": 68, "probability": 1.0}, {"pitch": 83, "start": 24.0, "length": 8.0, "velocity": 68, "probability": 1.0}], "groove": null, "pattern": "sustained_wide"}, {"section": "s6", "bars": 4, "notes": [{"pitch": 64, "start": 0.0, "length": 8.0, "velocity": 68, "probability": 1.0}, {"pitch": 67, "start": 0.0, "length": 8.0, "velocity": 68, "probability": 1.0}, {"pitch": 71, "start": 0.0, "length": 8.0, "velocity": 68, "probability": 1.0}, {"pitch": 83, "start": 0.0, "length": 8.0, "velocity": 68, "probability": 1.0}, {"pitch": 69, "start": 8.0, "length": 8.0, "velocity": 68, "probability": 1.0}, {"pitch": 72, "start": 8.0, "length": 8.0, "velocity": 68, "probability": 1.0}, {"pitch": 76, "start": 8.0, "length": 8.0, "velocity": 68, "probability": 1.0}, {"pitch": 88, "start": 8.0, "length": 8.0, "velocity": 68, "probability": 1.0}], "groove": null, "pattern": "sustained_wide"}, {"section": "s7", "bars": 8, "notes": [{"pitch": 64, "start": 0.0, "length": 8.0, "velocity": 68, "probability": 1.0}, {"pitch": 67, "start": 0.0, "length": 8.0, "velocity": 68, "probability": 1.0}, {"pitch": 71, "start": 0.0, "length": 8.0, "velocity": 68, "probability": 1.0}, {"pitch": 83, "start": 0.0, "length": 8.0, "velocity": 68, "probability": 1.0}, {"pitch": 69, "start": 8.0, "length": 8.0, "velocity": 68, "probability": 1.0}, {"pitch": 72, "start": 8.0, "length": 8.0, "velocity": 68, "probability": 1.0}, {"pitch": 76, "start": 8.0, "length": 8.0, "velocity": 68, "probability": 1.0}, {"pitch": 88, "start": 8.0, "length": 8.0, "velocity": 68, "probability": 1.0}, {"pitch": 71, "start": 16.0, "length": 8.0, "velocity": 68, "probability": 1.0}, {"pitch": 74, "start": 16.0, "length": 8.0, "velocity": 68, "probability": 1.0}, {"pitch": 78, "start": 16.0, "length": 8.0, "velocity": 68, "probability": 1.0}, {"pitch": 90, "start": 16.0, "length": 8.0, "velocity": 68, "probability": 1.0}, {"pitch": 64, "start": 24.0, "length": 8.0, "velocity": 68, "probability": 1.0}, {"pitch": 67, "start": 24.0, "length": 8.0, "velocity": 68, "probability": 1.0}, {"pitch": 71, "start": 24.0, "length": 8.0, "velocity": 68, "probability": 1.0}, {"pitch": 83, "start": 24.0, "length": 8.0, "velocity": 68, "probability": 1.0}], "groove": null, "pattern": "sustained_wide"}, {"section": "s8", "bars": 4, "notes": [{"pitch": 64, "start": 0.0, "length": 8.0, "velocity": 68, "probability": 1.0}, {"pitch": 67, "start": 0.0, "length": 8.0, "velocity": 68, "probability": 1.0}, {"pitch": 71, "start": 0.0, "length": 8.0, "velocity": 68, "probability": 1.0}, {"pitch": 83, "start": 0.0, "length": 8.0, "velocity": 68, "probability": 1.0}, {"pitch": 69, "start": 8.0, "length": 8.0, "velocity": 68, "probability": 1.0}, {"pitch": 72, "start": 8.0, "length": 8.0, "velocity": 68, "probability": 1.0}, {"pitch": 76, "start": 8.0, "length": 8.0, "velocity": 68, "probability": 1.0}, {"pitch": 88, "start": 8.0, "length": 8.0, "velocity": 68, "probability": 1.0}], "groove": null, "pattern": "sustained_wide"}], "mix": {"volume_db": -9.0, "pan": 0.0}, "instrument_hint": "ethereal wide pad sustaining minor tonality"}, {"id": "t6", "role": "fx", "name": "FX and Sweeps", "clips": [{"section": "s1", "bars": 4, "notes": [{"pitch": 88, "start": 3.5, "length": 0.5, "velocity": 70, "probability": 1.0}], "groove": null, "pattern": "sparse_tail"}, {"section": "s3", "bars": 4, "notes": [{"pitch": 88, "start": 3.5, "length": 0.5, "velocity": 70, "probability": 1.0}], "groove": null, "pattern": "sparse_tail"}, {"section": "s6", "bars": 4, "notes": [{"pitch": 88, "start": 3.5, "length": 0.5, "velocity": 70, "probability": 1.0}], "groove": null, "pattern": "sparse_tail"}, {"section": "s8", "bars": 4, "notes": [{"pitch": 88, "start": 3.5, "length": 0.5, "velocity": 70, "probability": 1.0}], "groove": null, "pattern": "sparse_tail"}], "mix": {"volume_db": -8.0, "pan": 0.0}, "instrument_hint": "risers, impacts, and sparse tail effects"}], "genre": "drum and bass", "mood": "high-energy atmospheric with deep sub-bass and rapid breakbeats", "topic": "late-night urban jungle exploration with driving drum and bass rhythms"}, "undo_stack": []}